<svg width="57" height="54" viewBox="0 0 57 54" fill="none" xmlns="http://www.w3.org/2000/svg">
<g clip-path="url(#clip0_52_579)">
<path d="M32.7432 33.7875L14.2454 44.4672L15.4192 35.3256L13.9038 32.7007C10.0465 26.0198 12.3356 17.4769 19.0165 13.6196L20.5786 12.7178C26.3968 9.35859 33.8366 11.3521 37.1958 17.1703C40.5549 22.9886 38.5615 30.4283 32.7432 33.7875Z" fill="white" stroke="#006FFF" stroke-width="2"/>
<path d="M41.2142 34.9708L53.3086 27.9881L47.6507 24.8593L46.2965 22.5137C43.5805 17.8095 37.5651 16.1976 32.8608 18.9137L32.1729 19.3108C27.8486 21.8075 26.3669 27.3371 28.8636 31.6614C31.3603 35.9858 36.8898 37.4674 41.2142 34.9708Z" fill="#2DE09E"/>
<path d="M32.2294 33.547L33.6867 32.7764C38.9251 30.0066 40.816 23.4408 37.8532 18.309V18.309" stroke="#002F75" stroke-opacity="0.21" stroke-width="2"/>
<path d="M33.3452 28.7856C33.1844 28.2701 33.4024 27.7121 33.87 27.4421C34.5106 27.0723 35.3289 27.3919 35.5492 28.0981L35.6473 28.4127C35.8081 28.9281 35.5901 29.4861 35.1225 29.7561C34.4819 30.126 33.6636 29.8063 33.4433 29.1001L33.3452 28.7856Z" fill="white"/>
<path d="M36.6998 26.766C36.5422 26.3003 36.7353 25.7881 37.1611 25.5423C37.7247 25.2169 38.4451 25.4885 38.6536 26.1049L38.8391 26.6532C38.9967 27.1189 38.8037 27.6311 38.3779 27.8769C37.8143 28.2023 37.0939 27.9307 36.8853 27.3143L36.6998 26.766Z" fill="white"/>
<path d="M39.8309 24.9579C39.6733 24.4922 39.8664 23.98 40.2922 23.7342C40.8558 23.4088 41.5762 23.6804 41.7847 24.2968L41.9702 24.8451C42.1278 25.3108 41.9348 25.8229 41.509 26.0688C40.9454 26.3942 40.225 26.1226 40.0164 25.5062L39.8309 24.9579Z" fill="white"/>
<path d="M18.4885 38.5848C17.9689 40.4792 19.0882 42.4179 20.9887 42.9151L30.559 45.4269L33.4139 35.8386C33.9336 33.9442 32.8142 32.0054 30.9138 31.5083C29.0134 31.0111 27.0515 32.1438 26.5319 34.0382L25.776 36.8231L22.8705 36.0549C20.97 35.5577 19.0082 36.6904 18.4885 38.5848Z" fill="#FF5454"/>
<mask id="mask0_52_579" style="mask-type:alpha" maskUnits="userSpaceOnUse" x="18" y="31" width="16" height="15">
<path d="M18.4885 38.5848C17.9689 40.4792 19.0882 42.4179 20.9887 42.9151L30.559 45.4269L33.4139 35.8386C33.9336 33.9442 32.8142 32.0054 30.9138 31.5083C29.0134 31.0111 27.0515 32.1438 26.5319 34.0382L25.776 36.8231L22.8705 36.0549C20.97 35.5577 19.0082 36.6904 18.4885 38.5848Z" fill="#FF5454"/>
</mask>
<g mask="url(#mask0_52_579)">
<path fill-rule="evenodd" clip-rule="evenodd" d="M29.7405 31.583C29.7889 31.5569 29.8373 31.5308 29.8857 31.5047C29.9668 31.5911 29.7682 31.6983 29.7405 31.583Z" fill="#FFBB54"/>
<path fill-rule="evenodd" clip-rule="evenodd" d="M30.8171 31.7832C30.8671 31.721 30.9846 31.672 31.0629 31.7755C31.1845 31.9364 30.9178 32.153 30.7987 31.9806C30.763 31.929 30.7368 31.8829 30.8171 31.7832Z" fill="#FFBB54"/>
<path fill-rule="evenodd" clip-rule="evenodd" d="M29.561 32.5237C29.6698 32.6645 29.6401 32.7639 29.472 32.8218C29.2428 32.7809 29.3471 32.432 29.561 32.5237Z" fill="#FFBB54"/>
<path fill-rule="evenodd" clip-rule="evenodd" d="M28.1114 33.3688C28.1708 33.4609 28.1356 33.5248 28.0316 33.5681C28.0092 33.5523 27.9869 33.5363 27.957 33.5458C27.826 33.4116 28.0222 33.2656 28.1114 33.3688Z" fill="#FFBB54"/>
<path fill-rule="evenodd" clip-rule="evenodd" d="M26.5258 34.1934C26.5419 34.1847 26.5581 34.176 26.5742 34.1673C26.5809 34.1903 26.596 34.185 26.6114 34.1784C26.6202 34.1946 26.6289 34.2107 26.6376 34.2268C26.6146 34.2335 26.6199 34.2486 26.6264 34.2641C26.6103 34.2728 26.5942 34.2815 26.5781 34.2902C26.5714 34.2672 26.5562 34.2724 26.5408 34.2791C26.5321 34.2629 26.5234 34.2468 26.5147 34.2307C26.5376 34.224 26.5323 34.2089 26.5258 34.1934Z" fill="#FFBB54"/>
<path fill-rule="evenodd" clip-rule="evenodd" d="M30.4329 32.8656C30.7047 32.5289 31.0103 33.1443 30.6289 33.2286C30.455 33.267 30.3108 33.017 30.4329 32.8656Z" fill="#FFBB54"/>
<path fill-rule="evenodd" clip-rule="evenodd" d="M31.8845 32.0821C32.1561 31.7454 32.4618 32.3608 32.0804 32.4451C31.9064 32.4835 31.7623 32.2334 31.8845 32.0821Z" fill="#FFBB54"/>
<path fill-rule="evenodd" clip-rule="evenodd" d="M28.9702 33.6865C29.011 33.5765 29.1981 33.5546 29.2625 33.5912C29.5006 33.8162 29.2166 34.0526 29.0283 33.9676C28.9698 33.8622 28.889 33.7501 28.9702 33.6865Z" fill="#FFBB54"/>
<path fill-rule="evenodd" clip-rule="evenodd" d="M27.5801 34.4681C27.6301 34.4059 27.7477 34.3569 27.8259 34.4604C27.9476 34.6213 27.6809 34.8378 27.5617 34.6655C27.5261 34.6139 27.4999 34.5678 27.5801 34.4681Z" fill="#FFBB54"/>
<path fill-rule="evenodd" clip-rule="evenodd" d="M26.1586 35.423C26.0721 35.277 26.2774 35.1662 26.3521 35.3185C26.3542 35.4261 26.2474 35.4838 26.1586 35.423Z" fill="#FFBB54"/>
<path fill-rule="evenodd" clip-rule="evenodd" d="M30.0971 33.922C30.2022 33.8296 30.3842 33.7933 30.4919 33.9589C30.6958 34.2721 30.1952 34.5667 30.0212 34.2442C29.9797 34.1675 29.9461 34.0548 30.0971 33.922Z" fill="#FFBB54"/>
<path fill-rule="evenodd" clip-rule="evenodd" d="M31.5245 33.1515C31.8333 32.8357 32.1661 33.3692 31.8695 33.559C31.7623 33.6277 31.5868 33.6429 31.4858 33.4849C31.3985 33.3486 31.4079 33.2707 31.5245 33.1515Z" fill="#FFBB54"/>
<path fill-rule="evenodd" clip-rule="evenodd" d="M28.6586 34.7297C28.7892 34.6066 28.9378 34.6298 29.0162 34.7555C29.1751 35.0101 28.7869 35.3153 28.6068 35.0389C28.5562 34.9611 28.5089 34.871 28.6586 34.7297Z" fill="#FFBB54"/>
<path fill-rule="evenodd" clip-rule="evenodd" d="M27.4398 35.4814C27.6763 35.6277 27.5157 35.9353 27.2801 35.8801C27.0436 35.7338 27.2042 35.4263 27.4398 35.4814Z" fill="#FFBB54"/>
<path fill-rule="evenodd" clip-rule="evenodd" d="M25.966 36.3395C25.9921 36.3879 26.0182 36.4363 26.0444 36.4847C26.0312 36.5349 25.9523 36.5654 25.8881 36.6003C25.7226 36.5347 25.7916 36.3035 25.966 36.3395Z" fill="#FFBB54"/>
<path fill-rule="evenodd" clip-rule="evenodd" d="M29.726 35.0286C29.8826 34.8786 30.0721 34.8885 30.1823 35.0636C30.4103 35.4261 29.8769 35.7186 29.6762 35.3993C29.6169 35.305 29.5688 35.1794 29.726 35.0286Z" fill="#FFBB54"/>
<path fill-rule="evenodd" clip-rule="evenodd" d="M31.1292 34.2712C31.1839 34.2035 31.2898 34.1282 31.358 34.1164C31.372 34.1139 31.3969 34.1525 31.4084 34.1517C31.4214 34.1508 31.4445 34.1224 31.4567 34.1256C31.4874 34.1335 31.49 34.1712 31.5201 34.1851C31.5278 34.1887 31.5777 34.1796 31.5816 34.1832C31.7039 34.2995 31.7066 34.444 31.6788 34.537C31.6581 34.6062 31.5843 34.7466 31.4035 34.7794C31.3897 34.7819 31.3646 34.7432 31.3532 34.744C31.3402 34.745 31.3171 34.7733 31.3048 34.7702C31.2741 34.7622 31.2716 34.7245 31.2414 34.7106C31.2338 34.7071 31.1838 34.7162 31.18 34.7125C31.0532 34.5918 31.0019 34.4289 31.1292 34.2712Z" fill="#FFBB54"/>
<path fill-rule="evenodd" clip-rule="evenodd" d="M32.5807 33.4876C32.6353 33.42 32.7414 33.3446 32.8096 33.3328C32.8234 33.3304 32.8485 33.369 32.8598 33.3682C32.8729 33.3673 32.8959 33.3389 32.9082 33.3421C32.9389 33.35 32.9414 33.3877 32.9716 33.4016C32.9792 33.4052 33.0291 33.3961 33.0329 33.3998C33.1553 33.516 33.1581 33.6605 33.1302 33.7536C33.1095 33.8228 33.0357 33.9632 32.8549 33.9959C32.841 33.9985 32.816 33.9598 32.8046 33.9606C32.7915 33.9615 32.7685 33.9898 32.7563 33.9867C32.7256 33.9787 32.723 33.941 32.6929 33.9271C32.6852 33.9236 32.6352 33.9327 32.6314 33.929C32.5048 33.8082 32.4535 33.6454 32.5807 33.4876Z" fill="#FFBB54"/>
<path fill-rule="evenodd" clip-rule="evenodd" d="M28.2875 35.8364C28.3884 35.7336 28.6035 35.699 28.7065 35.8602C28.7945 35.9979 28.7293 36.1821 28.6325 36.2439C28.4081 36.3873 28.0364 36.0922 28.2875 35.8364Z" fill="#FFBB54"/>
<path fill-rule="evenodd" clip-rule="evenodd" d="M26.8621 36.6683C27.1339 36.3316 27.4395 36.947 27.058 37.0313C26.8841 37.0697 26.7398 36.8197 26.8621 36.6683Z" fill="#FFBB54"/>
<path fill-rule="evenodd" clip-rule="evenodd" d="M25.6563 37.4442C25.7651 37.585 25.7354 37.6843 25.5673 37.7423C25.3381 37.7014 25.4423 37.3526 25.6563 37.4442Z" fill="#FFBB54"/>
<path fill-rule="evenodd" clip-rule="evenodd" d="M30.8418 35.3014C30.851 35.2941 30.8491 35.2639 30.8771 35.2511C31.0581 35.1674 31.2633 35.2337 31.3484 35.3717C31.4502 35.537 31.373 35.7859 31.2409 35.8672C31.0982 35.9551 30.8363 35.9278 30.7324 35.7354C30.6456 35.5746 30.7005 35.4142 30.8418 35.3014Z" fill="#FFBB54"/>
<path fill-rule="evenodd" clip-rule="evenodd" d="M32.2691 34.5309C32.6808 34.1727 33.0885 34.8424 32.6925 35.0837C32.5211 35.188 32.3008 35.1683 32.184 34.9519C32.0946 34.7863 32.1151 34.6649 32.2691 34.5309Z" fill="#FFBB54"/>
<path fill-rule="evenodd" clip-rule="evenodd" d="M29.3791 36.1222C29.5196 35.993 29.7702 35.9786 29.8857 36.1925C29.9734 36.355 29.8976 36.5516 29.7763 36.6266C29.6455 36.7074 29.4191 36.7173 29.305 36.5059C29.2257 36.3589 29.2393 36.2508 29.3791 36.1222Z" fill="#FFBB54"/>
<path fill-rule="evenodd" clip-rule="evenodd" d="M27.989 36.9038C28.0285 36.875 28.0858 36.828 28.1341 36.8255C28.1655 36.8238 28.3066 36.8706 28.3204 36.8812C28.3839 36.9296 28.4471 37.0677 28.451 37.1232C28.4523 37.1414 28.3916 37.3144 28.3954 37.3095C28.2213 37.5381 27.8506 37.3758 27.8366 37.1424C27.8365 37.1408 27.879 36.9728 27.8922 36.9561C27.9115 36.9317 27.9637 36.9223 27.989 36.9038Z" fill="#FFBB54"/>
<path fill-rule="evenodd" clip-rule="evenodd" d="M26.5635 37.7358C26.6304 37.6824 26.7383 37.6619 26.7832 37.6797C26.8684 37.7137 26.9649 37.9171 26.9288 38.0074C26.8947 38.0932 26.719 38.1998 26.6013 38.153C26.5316 38.1252 26.4232 37.9538 26.4445 37.8625C26.4559 37.8133 26.5144 37.775 26.5635 37.7358Z" fill="#FFBB54"/>
<path fill-rule="evenodd" clip-rule="evenodd" d="M25.3225 38.562C25.4312 38.7028 25.4016 38.8021 25.2334 38.8601C25.0042 38.8193 25.1085 38.4702 25.3225 38.562Z" fill="#FFBB54"/>
<path fill-rule="evenodd" clip-rule="evenodd" d="M30.519 36.3819C30.6039 36.3236 30.7345 36.284 30.8243 36.3109C31.005 36.3649 31.1272 36.6559 31.0856 36.7949C31.0363 36.96 30.775 37.1079 30.6018 37.056C30.5378 37.0369 30.3996 36.9231 30.3613 36.8421C30.339 36.7948 30.3226 36.6454 30.3294 36.6093C30.346 36.5219 30.4301 36.4429 30.519 36.3819Z" fill="#FFBB54"/>
<path fill-rule="evenodd" clip-rule="evenodd" d="M31.898 35.6375C31.962 35.5766 32.012 35.5272 32.0785 35.5089C32.1747 35.4824 32.4008 35.5571 32.4772 35.6687C32.6043 35.8544 32.5501 36.1071 32.3959 36.2126C32.2449 36.3158 31.9576 36.3643 31.8129 36.0585C31.7519 35.9297 31.7468 35.7816 31.898 35.6375Z" fill="#FFBB54"/>
<path fill-rule="evenodd" clip-rule="evenodd" d="M33.3496 34.854C33.4134 34.7931 33.4634 34.7437 33.53 34.7253C33.6263 34.6989 33.8524 34.7736 33.9286 34.8852C34.0557 35.0709 34.0015 35.3236 33.8474 35.4291C33.6964 35.5323 33.4091 35.5808 33.2643 35.275C33.2035 35.1461 33.1983 34.9981 33.3496 34.854Z" fill="#FFBB54"/>
<path fill-rule="evenodd" clip-rule="evenodd" d="M29.0805 37.1897C29.2118 37.0984 29.4553 37.098 29.5629 37.273C29.6489 37.4127 29.6163 37.6697 29.4555 37.7686C29.3104 37.8578 29.0488 37.8444 28.9339 37.6126C28.9375 37.6196 28.9086 37.5213 28.9059 37.5027C28.8938 37.4194 28.9313 37.2935 29.0805 37.1897Z" fill="#FFBB54"/>
<path fill-rule="evenodd" clip-rule="evenodd" d="M27.6067 38.0477C27.7633 37.8977 27.953 37.9076 28.063 38.0827C28.291 38.4452 27.7576 38.7377 27.5569 38.4184C27.4976 38.3241 27.4495 38.1985 27.6067 38.0477Z" fill="#FFBB54"/>
<path fill-rule="evenodd" clip-rule="evenodd" d="M26.2055 38.8666C26.2767 38.7997 26.3751 38.7694 26.4493 38.7975C26.4567 38.8003 26.5495 38.8717 26.5631 38.8924C26.6449 39.0182 26.5868 39.1824 26.5002 39.2389C26.3022 39.3676 25.9358 39.1203 26.2055 38.8666Z" fill="#FFBB54"/>
<path fill-rule="evenodd" clip-rule="evenodd" d="M24.9886 39.6798C25.0974 39.8205 25.0677 39.9199 24.8996 39.9779C24.6704 39.937 24.7746 39.5881 24.9886 39.6798Z" fill="#FFBB54"/>
<path fill-rule="evenodd" clip-rule="evenodd" d="M31.5511 36.7311C31.6189 36.6694 31.6562 36.6254 31.7316 36.6024C31.8489 36.5667 32.0642 36.6284 32.1545 36.7492C32.3095 36.9569 32.256 37.2245 32.0993 37.3415C31.9057 37.4861 31.5761 37.4812 31.4417 37.1652C31.3873 37.037 31.3857 36.8817 31.5511 36.7311Z" fill="#FFBB54"/>
<path fill-rule="evenodd" clip-rule="evenodd" d="M32.9785 35.9606C33.0571 35.8827 33.1386 35.8238 33.2073 35.8058C33.2726 35.7888 33.511 35.8412 33.5798 35.9173C33.853 36.2188 33.6364 36.59 33.3572 36.6625C33.2913 36.6796 33.0441 36.6164 32.9846 36.5511C32.823 36.3732 32.7969 36.1405 32.9785 35.9606Z" fill="#FFBB54"/>
<path fill-rule="evenodd" clip-rule="evenodd" d="M30.1126 37.5389C30.1772 37.4792 30.2211 37.4321 30.2931 37.4102C30.3872 37.3815 30.5103 37.4333 30.565 37.4509C30.696 37.4931 30.8112 37.8118 30.7648 37.9368C30.7565 37.9595 30.7364 37.9657 30.7295 37.9872C30.7089 38.0513 30.5055 38.2025 30.3797 38.2073C30.366 38.2077 30.3404 38.1712 30.3294 38.1719C30.3159 38.1728 30.2938 38.201 30.281 38.198C30.2239 38.1849 30.1224 38.1105 30.0797 38.0567C29.954 37.8978 29.9357 37.7021 30.1126 37.5389Z" fill="#FFBB54"/>
<path fill-rule="evenodd" clip-rule="evenodd" d="M28.6983 38.3336C29.1099 37.9755 29.5176 38.6451 29.1217 38.8863C28.9503 38.9907 28.73 38.9711 28.6131 38.7546C28.5238 38.589 28.5443 38.4676 28.6983 38.3336Z" fill="#FFBB54"/>
<path fill-rule="evenodd" clip-rule="evenodd" d="M27.2487 39.1786C27.381 39.035 27.59 39.0145 27.703 39.1521C27.8285 39.3048 27.7948 39.5112 27.6924 39.5954C27.4187 39.8203 26.9833 39.4664 27.2487 39.1786Z" fill="#FFBB54"/>
<path fill-rule="evenodd" clip-rule="evenodd" d="M25.8958 39.9714C25.9628 39.918 26.0707 39.8974 26.1155 39.9153C26.2008 39.9493 26.297 40.1527 26.2611 40.243C26.2269 40.3289 26.0513 40.4354 25.9336 40.3885C25.8639 40.3608 25.7556 40.1893 25.7768 40.0981C25.7882 40.0489 25.8467 40.0105 25.8958 39.9714Z" fill="#FFBB54"/>
<path fill-rule="evenodd" clip-rule="evenodd" d="M24.6305 40.8106C24.6567 40.859 24.6828 40.9074 24.7089 40.9558C24.6957 41.0061 24.6168 41.0364 24.5526 41.0714C24.3872 41.0058 24.4562 40.7746 24.6305 40.8106Z" fill="#FFBB54"/>
<path fill-rule="evenodd" clip-rule="evenodd" d="M31.2525 37.7986C31.261 37.7923 31.2592 37.7591 31.2879 37.7483C31.465 37.6819 31.5869 37.7035 31.7069 37.7721C31.7321 37.7865 31.8341 37.8416 31.8709 37.9023C32.0475 38.194 31.8138 38.5755 31.4732 38.5545C31.3662 38.548 31.1994 38.5103 31.1098 38.3444C31.0844 38.2973 31.0483 38.1752 31.0537 38.1247C31.055 38.1127 31.0896 38.0839 31.089 38.0744C31.0821 37.9782 31.1122 37.9018 31.2525 37.7986Z" fill="#FFBB54"/>
<path fill-rule="evenodd" clip-rule="evenodd" d="M32.6315 37.0542C32.728 36.9602 32.7766 36.9215 32.8604 36.8994C32.9452 36.8771 33.1904 36.9347 33.2833 37.0462C33.4729 37.2739 33.4269 37.6576 33.0849 37.7783C32.9088 37.8404 32.6376 37.801 32.5222 37.4883C32.4821 37.3795 32.4832 37.1988 32.6315 37.0542Z" fill="#FFBB54"/>
<path fill-rule="evenodd" clip-rule="evenodd" d="M29.8141 38.6063C30.2732 38.2589 30.7261 39.0204 30.2413 39.282C30.084 39.3669 29.8162 39.3628 29.6824 39.1149C29.5801 38.9253 29.6313 38.7446 29.8141 38.6063Z" fill="#FFBB54"/>
<path fill-rule="evenodd" clip-rule="evenodd" d="M28.3402 39.4644C28.4935 39.3136 28.7362 39.2891 28.8691 39.4602C28.998 39.6263 28.9749 39.8703 28.8362 39.978C28.6911 40.0906 28.4113 40.1546 28.2662 39.8482C28.21 39.7293 28.1969 39.6055 28.3402 39.4644Z" fill="#FFBB54"/>
<path fill-rule="evenodd" clip-rule="evenodd" d="M26.939 40.2833C27.0955 40.1332 27.2851 40.1431 27.3953 40.3183C27.6233 40.6808 27.0899 40.9733 26.8892 40.654C26.8299 40.5597 26.7818 40.4341 26.939 40.2833Z" fill="#FFBB54"/>
<path fill-rule="evenodd" clip-rule="evenodd" d="M25.5266 41.1395C25.7985 40.8029 26.1041 41.4182 25.7226 41.5025C25.5487 41.5409 25.4045 41.2908 25.5266 41.1395Z" fill="#FFBB54"/>
<path fill-rule="evenodd" clip-rule="evenodd" d="M24.1554 42.1297C24.069 41.9837 24.2744 41.8729 24.3489 42.0252C24.3511 42.1328 24.2442 42.1905 24.1554 42.1297Z" fill="#FFBB54"/>
<path fill-rule="evenodd" clip-rule="evenodd" d="M32.3088 38.1347C32.5425 37.9279 32.9085 37.9579 33.052 38.2961C33.1269 38.4727 33.0575 38.7327 32.9093 38.8419C32.7249 38.9776 32.3294 39.0019 32.1772 38.6433C32.1136 38.4934 32.1239 38.2984 32.3088 38.1347Z" fill="#FFBB54"/>
<path fill-rule="evenodd" clip-rule="evenodd" d="M30.8703 38.9425C31.2007 38.65 31.5752 38.8908 31.6174 39.2268C31.6375 39.386 31.4946 39.6695 31.1896 39.7077C30.8934 39.7448 30.5114 39.2602 30.8703 38.9425Z" fill="#FFBB54"/>
<path fill-rule="evenodd" clip-rule="evenodd" d="M29.4802 39.7241C29.9393 39.3767 30.3922 40.1381 29.9074 40.3998C29.7503 40.4846 29.4824 40.4805 29.3486 40.2327C29.2463 40.0431 29.2976 39.8623 29.4802 39.7241Z" fill="#FFBB54"/>
<path fill-rule="evenodd" clip-rule="evenodd" d="M28.0306 40.5691C28.4422 40.2111 28.8499 40.8807 28.4539 41.1219C28.2826 41.2263 28.0623 41.2066 27.9454 40.9901C27.8561 40.8247 27.8766 40.7032 28.0306 40.5691Z" fill="#FFBB54"/>
<path fill-rule="evenodd" clip-rule="evenodd" d="M26.6535 41.375C26.693 41.3461 26.7504 41.2991 26.7987 41.2966C26.8301 41.295 26.9711 41.3418 26.985 41.3523C27.0485 41.4007 27.1117 41.5389 27.1156 41.5943C27.117 41.6126 27.0562 41.7857 27.06 41.7806C26.8858 42.0092 26.5151 41.8469 26.5011 41.6135C26.501 41.6119 26.5436 41.444 26.5568 41.4272C26.576 41.4028 26.6281 41.3935 26.6535 41.375Z" fill="#FFBB54"/>
<path fill-rule="evenodd" clip-rule="evenodd" d="M25.4366 42.1881C25.6731 42.3344 25.5125 42.6419 25.277 42.5868C25.0405 42.4405 25.2011 42.133 25.4366 42.1881Z" fill="#FFBB54"/>
<path fill-rule="evenodd" clip-rule="evenodd" d="M23.8549 43.1357C23.8711 43.127 23.8872 43.1183 23.9033 43.1096C23.91 43.1325 23.9251 43.1274 23.9406 43.1207C23.9493 43.1369 23.958 43.153 23.9667 43.1691C23.9437 43.1758 23.9489 43.1909 23.9556 43.2064C23.9394 43.2151 23.9233 43.2238 23.9072 43.2325C23.9005 43.2095 23.8854 43.2148 23.8699 43.2214C23.8612 43.2052 23.8525 43.1891 23.8438 43.173C23.8668 43.1663 23.8615 43.1512 23.8549 43.1357Z" fill="#FFBB54"/>
<path fill-rule="evenodd" clip-rule="evenodd" d="M31.9266 39.2786C32.1171 39.0864 32.228 39.0847 32.4143 39.1404C32.5293 39.1748 32.7064 39.2555 32.7704 39.5107C32.793 39.6011 32.7324 39.8423 32.648 39.9205C32.4711 40.0848 32.3119 40.0838 32.1472 40.0346C32.032 40.0002 31.8573 39.9283 31.7911 39.6643C31.7745 39.5984 31.8015 39.4048 31.9266 39.2786Z" fill="#FFBB54"/>
<path fill-rule="evenodd" clip-rule="evenodd" d="M30.5123 40.0733C30.6087 39.9793 30.6575 39.9406 30.7411 39.9185C30.8259 39.8962 31.0711 39.9538 31.164 40.0653C31.3537 40.293 31.3077 40.6767 30.9656 40.7974C30.7896 40.8596 30.5183 40.8201 30.4029 40.5074C30.3629 40.3988 30.364 40.218 30.5123 40.0733Z" fill="#FFBB54"/>
<path fill-rule="evenodd" clip-rule="evenodd" d="M29.1463 40.8419C29.6055 40.4944 30.0583 41.2559 29.5736 41.5176C29.4163 41.6025 29.1485 41.5983 29.0147 41.3505C28.9124 41.1609 28.9637 40.9801 29.1463 40.8419Z" fill="#FFBB54"/>
<path fill-rule="evenodd" clip-rule="evenodd" d="M27.7451 41.6608C27.8764 41.5695 28.1198 41.5691 28.2275 41.7442C28.3135 41.8839 28.2809 42.1409 28.1201 42.2397C27.9751 42.3289 27.7133 42.3154 27.5985 42.0837C27.602 42.0908 27.5732 41.9924 27.5704 41.9739C27.5584 41.8905 27.5959 41.7647 27.7451 41.6608Z" fill="#FFBB54"/>
<path fill-rule="evenodd" clip-rule="evenodd" d="M26.2844 42.5431C26.3852 42.4403 26.6003 42.4057 26.7034 42.5669C26.7914 42.7046 26.7261 42.8888 26.6293 42.9507C26.405 43.094 26.0332 42.799 26.2844 42.5431Z" fill="#FFBB54"/>
<path fill-rule="evenodd" clip-rule="evenodd" d="M24.9092 43.4104C24.9593 43.3482 25.0768 43.2992 25.155 43.4027C25.2768 43.5637 25.0101 43.7802 24.8909 43.6078C24.8552 43.5562 24.829 43.5101 24.9092 43.4104Z" fill="#FFBB54"/>
<path fill-rule="evenodd" clip-rule="evenodd" d="M31.6764 40.32C31.6785 40.3185 31.667 40.2932 31.6875 40.2827C31.9253 40.162 32.2373 40.2257 32.3693 40.446C32.523 40.7029 32.3848 41.1022 32.0722 41.1689C31.8694 41.2121 31.504 41.1274 31.4572 40.7821C31.4382 40.642 31.4986 40.4489 31.6764 40.32Z" fill="#FFBB54"/>
<path fill-rule="evenodd" clip-rule="evenodd" d="M30.2026 41.1781C30.533 40.8856 30.9074 41.1264 30.9497 41.4623C30.9696 41.6216 30.8269 41.9051 30.5219 41.9432C30.2256 41.9804 29.8436 41.4958 30.2026 41.1781Z" fill="#FFBB54"/>
<path fill-rule="evenodd" clip-rule="evenodd" d="M28.7772 42.01C28.8418 41.9504 28.8856 41.9033 28.9576 41.8813C29.0518 41.8527 29.175 41.9045 29.2296 41.9221C29.3605 41.9643 29.4759 42.283 29.4294 42.408C29.421 42.4306 29.401 42.4369 29.3941 42.4583C29.3734 42.5223 29.1701 42.6736 29.0442 42.6784C29.0306 42.6789 29.005 42.6423 28.9939 42.6431C28.9804 42.6441 28.9583 42.6722 28.9455 42.6692C28.8885 42.6561 28.787 42.5818 28.7443 42.5278C28.6186 42.3691 28.6002 42.1732 28.7772 42.01Z" fill="#FFBB54"/>
<path fill-rule="evenodd" clip-rule="evenodd" d="M27.3759 42.8289C27.5165 42.6996 27.767 42.6853 27.8825 42.8992C27.9702 43.0617 27.8945 43.2583 27.7732 43.3333C27.6424 43.4142 27.416 43.424 27.3019 43.2126C27.2225 43.0656 27.236 42.9576 27.3759 42.8289Z" fill="#FFBB54"/>
<path fill-rule="evenodd" clip-rule="evenodd" d="M25.9877 43.672C26.1184 43.5489 26.2669 43.5721 26.3453 43.6978C26.5042 43.9524 26.116 44.2576 25.936 43.9812C25.8853 43.9033 25.838 43.8133 25.9877 43.672Z" fill="#FFBB54"/>
<path fill-rule="evenodd" clip-rule="evenodd" d="M31.2588 41.5142C31.4494 41.322 31.5603 41.3202 31.7466 41.3759C31.8616 41.4103 32.0387 41.491 32.1027 41.7462C32.1253 41.8366 32.0647 42.0778 31.9803 42.1561C31.8034 42.3203 31.6442 42.3194 31.4795 42.2702C31.3642 42.2358 31.1896 42.1639 31.1234 41.8999C31.1068 41.8339 31.1337 41.6403 31.2588 41.5142Z" fill="#FFBB54"/>
<path fill-rule="evenodd" clip-rule="evenodd" d="M29.9171 42.2697C29.9256 42.2635 29.9237 42.2302 29.9524 42.2194C30.1296 42.1531 30.2515 42.1746 30.3715 42.2432C30.3967 42.2576 30.4987 42.3127 30.5355 42.3735C30.7121 42.6651 30.4784 43.0466 30.1377 43.0257C30.0307 43.0191 29.8639 42.9814 29.7744 42.8156C29.749 42.7685 29.7128 42.6463 29.7182 42.5958C29.7195 42.584 29.7542 42.5551 29.7536 42.5455C29.7467 42.4494 29.7768 42.3729 29.9171 42.2697Z" fill="#FFBB54"/>
<path fill-rule="evenodd" clip-rule="evenodd" d="M28.5159 43.0886C28.6008 43.0304 28.7313 42.9907 28.8212 43.0176C29.0019 43.0716 29.124 43.3625 29.0825 43.5016C29.0331 43.6669 28.7719 43.8146 28.5986 43.7628C28.5348 43.7437 28.3964 43.6298 28.3581 43.5488C28.3359 43.5016 28.3194 43.3521 28.3262 43.316C28.3427 43.2287 28.427 43.1496 28.5159 43.0886Z" fill="#FFBB54"/>
<path fill-rule="evenodd" clip-rule="evenodd" d="M27.0551 43.9709C27.2117 43.8209 27.4012 43.8307 27.5114 44.0059C27.7394 44.3684 27.206 44.6609 27.0053 44.3416C26.946 44.2472 26.8979 44.1217 27.0551 43.9709Z" fill="#FFBB54"/>
<path fill-rule="evenodd" clip-rule="evenodd" d="M30.9734 42.6059C31.2071 42.3989 31.573 42.429 31.7166 42.7672C31.7914 42.9438 31.7222 43.2038 31.5738 43.3131C31.3895 43.4488 30.9939 43.473 30.8418 43.1144C30.7781 42.9645 30.7884 42.7695 30.9734 42.6059Z" fill="#FFBB54"/>
<path fill-rule="evenodd" clip-rule="evenodd" d="M29.5479 43.4378C29.6158 43.3761 29.6531 43.3321 29.7284 43.3092C29.8458 43.2734 30.0611 43.3351 30.1513 43.4559C30.3064 43.6637 30.2528 43.9312 30.0961 44.0482C29.9024 44.1929 29.573 44.1879 29.4386 43.8719C29.3841 43.7437 29.3825 43.5884 29.5479 43.4378Z" fill="#FFBB54"/>
<path fill-rule="evenodd" clip-rule="evenodd" d="M28.1709 44.2437C28.18 44.2363 28.1783 44.2062 28.2062 44.1933C28.3872 44.1097 28.5925 44.176 28.6775 44.314C28.7794 44.4793 28.7022 44.7282 28.5701 44.8095C28.4273 44.8974 28.1653 44.87 28.0615 44.6777C27.9747 44.5169 28.0296 44.3565 28.1709 44.2437Z" fill="#FFBB54"/>
<path fill-rule="evenodd" clip-rule="evenodd" d="M30.6284 43.7609C30.7248 43.6668 30.7736 43.6281 30.8572 43.6061C30.9421 43.5837 31.1873 43.6414 31.2801 43.7529C31.4698 43.9806 31.4238 44.3643 31.0817 44.485C30.9057 44.5471 30.6345 44.5077 30.519 44.195C30.4789 44.0864 30.4801 43.9056 30.6284 43.7609Z" fill="#FFBB54"/>
<path fill-rule="evenodd" clip-rule="evenodd" d="M29.2271 44.5798C29.291 44.5189 29.3411 44.4695 29.4076 44.4511C29.5039 44.4247 29.73 44.4994 29.8063 44.611C29.9334 44.7968 29.8792 45.0494 29.725 45.1549C29.5739 45.2582 29.2867 45.3066 29.142 45.0008C29.081 44.8719 29.0759 44.724 29.2271 44.5798Z" fill="#FFBB54"/>
<path fill-rule="evenodd" clip-rule="evenodd" d="M30.3076 44.9029C30.3862 44.8249 30.4677 44.7661 30.5364 44.7481C30.6017 44.7311 30.8401 44.7834 30.909 44.8595C31.1823 45.161 30.9655 45.5323 30.6864 45.6047C30.6205 45.6218 30.3733 45.5588 30.3139 45.4934C30.1521 45.3155 30.1261 45.0829 30.3076 44.9029Z" fill="#FFBB54"/>
</g>
<path d="M17.2165 31.8652C18.7302 30.175 19.8334 28.4928 20.6577 26.3612C21.1982 24.9634 21.8002 23.2933 21.4408 21.7568C21.1704 20.601 20.3769 21.8755 20.1664 22.3949C18.9647 25.3602 19.9523 30.9706 22.0118 30.098C23.2086 29.5909 23.9728 27.5132 24.4599 26.4253C25.2576 24.6437 25.8044 22.7493 26.1804 20.8278C26.2376 20.5355 26.7571 17.249 25.8211 18.5439C24.6026 20.2296 23.3625 25.3006 25.7606 26.6636C28.2181 28.0604 29.8325 22.8873 30.2192 21.3537C30.3809 20.7126 30.748 19.2166 30.748 19.2166C30.748 19.2166 30.7075 19.5821 30.6868 19.7648C30.6336 20.2353 30.5955 20.706 30.593 21.1807C30.5904 21.6596 30.5251 23.2411 31.4187 22.7251C32.2683 22.2346 32.8188 21.3184 33.295 20.274" stroke="black" stroke-width="2" stroke-linecap="round" stroke-linejoin="round"/>
</g>
<defs>
<clipPath id="clip0_52_579">
<rect width="44.6987" height="35.3432" fill="white" transform="translate(0 23.0801) rotate(-30)"/>
</clipPath>
</defs>
</svg>
