<svg width="28" height="38" viewBox="0 0 28 38" fill="none" xmlns="http://www.w3.org/2000/svg">
<mask id="mask0_52_581" style="mask-type:alpha" maskUnits="userSpaceOnUse" x="0" y="6" width="25" height="32">
<path d="M4.34399 32.533L0.954346 6.87793L23.7898 18.4584L17.3079 23.1499L24.2498 33.0064L17.7679 37.6979L10.8259 27.8415L4.34399 32.533Z" fill="#C4C4C4"/>
</mask>
<g mask="url(#mask0_52_581)">
<path d="M1.38301 6.94748C1.39411 7.28185 1.13572 7.56203 0.805886 7.57329C0.476049 7.58454 0.199663 7.32261 0.18856 6.98824C0.177457 6.65387 0.435843 6.37369 0.76568 6.36243C1.09552 6.35118 1.3719 6.61311 1.38301 6.94748Z" fill="#006FFF" fill-opacity="0.35"/>
<path d="M2.64446 8.92481C2.65556 9.25918 2.39718 9.53936 2.06734 9.55062C1.7375 9.56187 1.46112 9.29994 1.45002 8.96557C1.43891 8.6312 1.6973 8.35102 2.02714 8.33976C2.35697 8.32851 2.63336 8.59044 2.64446 8.92481Z" fill="#006FFF" fill-opacity="0.35"/>
<path d="M3.7719 6.86596C3.783 7.20033 3.52461 7.48051 3.19478 7.49177C2.86494 7.50302 2.58855 7.24109 2.57745 6.90672C2.56635 6.57235 2.82473 6.29217 3.15457 6.28092C3.48441 6.26966 3.76079 6.5316 3.7719 6.86596Z" fill="#006FFF" fill-opacity="0.35"/>
<path d="M5.03335 8.84329C5.04445 9.17766 4.78607 9.45784 4.45623 9.4691C4.12639 9.48035 3.85001 9.21842 3.83891 8.88405C3.8278 8.54968 4.08619 8.2695 4.41603 8.25825C4.74586 8.24699 5.02225 8.50893 5.03335 8.84329Z" fill="#006FFF" fill-opacity="0.35"/>
<path d="M6.16079 6.78445C6.17189 7.11882 5.9135 7.399 5.58367 7.41025C5.25383 7.42151 4.97744 7.15957 4.96634 6.82521C4.95524 6.49084 5.21362 6.21066 5.54346 6.1994C5.8733 6.18815 6.14968 6.45008 6.16079 6.78445Z" fill="#006FFF" fill-opacity="0.35"/>
<path d="M7.42224 8.76178C7.43335 9.09615 7.17496 9.37633 6.84512 9.38758C6.51529 9.39884 6.2389 9.1369 6.2278 8.80254C6.21669 8.46817 6.47508 8.18799 6.80492 8.17673C7.13475 8.16548 7.41114 8.42741 7.42224 8.76178Z" fill="#006FFF" fill-opacity="0.35"/>
<path d="M8.54968 6.70293C8.56078 7.0373 8.3024 7.31748 7.97256 7.32874C7.64272 7.33999 7.36634 7.07806 7.35523 6.74369C7.34413 6.40932 7.60252 6.12914 7.93235 6.11788C8.26219 6.10663 8.53858 6.36856 8.54968 6.70293Z" fill="#006FFF" fill-opacity="0.35"/>
<path d="M9.81113 8.68026C9.82224 9.01463 9.56385 9.29481 9.23401 9.30607C8.90418 9.31732 8.62779 9.05539 8.61669 8.72102C8.60559 8.38665 8.86397 8.10647 9.19381 8.09521C9.52364 8.08396 9.80003 8.34589 9.81113 8.68026Z" fill="#006FFF" fill-opacity="0.35"/>
<path d="M10.9386 6.62142C10.9497 6.95578 10.6913 7.23597 10.3614 7.24722C10.0316 7.25848 9.75523 6.99654 9.74412 6.66217C9.73302 6.32781 9.99141 6.04762 10.3212 6.03637C10.6511 6.02511 10.9275 6.28705 10.9386 6.62142Z" fill="#006FFF" fill-opacity="0.35"/>
<path d="M12.2 8.59875C12.2111 8.93311 11.9527 9.2133 11.6229 9.22455C11.2931 9.23581 11.0167 8.97387 11.0056 8.6395C10.9945 8.30514 11.2529 8.02495 11.5827 8.0137C11.9125 8.00244 12.1889 8.26438 12.2 8.59875Z" fill="#006FFF" fill-opacity="0.35"/>
<path d="M13.3275 6.5399C13.3386 6.87427 13.0802 7.15445 12.7503 7.1657C12.4205 7.17696 12.1441 6.91503 12.133 6.58066C12.1219 6.24629 12.3803 5.96611 12.7101 5.95485C13.04 5.9436 13.3164 6.20553 13.3275 6.5399Z" fill="#006FFF" fill-opacity="0.35"/>
<path d="M14.5889 8.51723C14.6 8.8516 14.3416 9.13178 14.0118 9.14303C13.682 9.15429 13.4056 8.89235 13.3945 8.55799C13.3834 8.22362 13.6418 7.94344 13.9716 7.93218C14.3014 7.92093 14.5778 8.18286 14.5889 8.51723Z" fill="#006FFF" fill-opacity="0.35"/>
<path d="M15.7164 6.45838C15.7275 6.79275 15.4691 7.07293 15.1392 7.08419C14.8094 7.09544 14.533 6.83351 14.5219 6.49914C14.5108 6.16477 14.7692 5.88459 15.099 5.87334C15.4289 5.86208 15.7052 6.12402 15.7164 6.45838Z" fill="#006FFF" fill-opacity="0.35"/>
<path d="M16.9778 8.43571C16.9889 8.77008 16.7305 9.05026 16.4007 9.06152C16.0708 9.07277 15.7945 8.81084 15.7834 8.47647C15.7723 8.1421 16.0306 7.86192 16.3605 7.85067C16.6903 7.83941 16.9667 8.10134 16.9778 8.43571Z" fill="#006FFF" fill-opacity="0.35"/>
<path d="M18.1052 6.37687C18.1163 6.71123 17.858 6.99142 17.5281 7.00267C17.1983 7.01393 16.9219 6.75199 16.9108 6.41762C16.8997 6.08326 17.1581 5.80307 17.4879 5.79182C17.8178 5.78056 18.0941 6.0425 18.1052 6.37687Z" fill="#006FFF" fill-opacity="0.35"/>
<path d="M19.3667 8.3542C19.3778 8.68856 19.1194 8.96875 18.7896 8.98C18.4597 8.99126 18.1834 8.72932 18.1723 8.39495C18.1612 8.06059 18.4195 7.7804 18.7494 7.76915C19.0792 7.75789 19.3556 8.01983 19.3667 8.3542Z" fill="#006FFF" fill-opacity="0.35"/>
<path d="M20.4941 6.29535C20.5052 6.62972 20.2469 6.9099 19.917 6.92116C19.5872 6.93241 19.3108 6.67048 19.2997 6.33611C19.2886 6.00174 19.547 5.72156 19.8768 5.7103C20.2066 5.69905 20.483 5.96098 20.4941 6.29535Z" fill="#006FFF" fill-opacity="0.35"/>
<path d="M21.7556 8.27268C21.7667 8.60705 21.5083 8.88723 21.1785 8.89849C20.8486 8.90974 20.5722 8.64781 20.5611 8.31344C20.55 7.97907 20.8084 7.69889 21.1383 7.68763C21.4681 7.67638 21.7445 7.93831 21.7556 8.27268Z" fill="#006FFF" fill-opacity="0.35"/>
<path d="M22.883 6.21383C22.8941 6.5482 22.6357 6.82838 22.3059 6.83964C21.9761 6.85089 21.6997 6.58896 21.6886 6.25459C21.6775 5.92022 21.9359 5.64004 22.2657 5.62879C22.5955 5.61753 22.8719 5.87947 22.883 6.21383Z" fill="#006FFF" fill-opacity="0.35"/>
<path d="M24.1445 8.19116C24.1556 8.52553 23.8972 8.80571 23.5674 8.81697C23.2375 8.82822 22.9611 8.56629 22.95 8.23192C22.9389 7.89755 23.1973 7.61737 23.5272 7.60612C23.857 7.59486 24.1334 7.8568 24.1445 8.19116Z" fill="#006FFF" fill-opacity="0.35"/>
<path d="M25.2719 6.13232C25.283 6.46669 25.0246 6.74687 24.6948 6.75812C24.365 6.76938 24.0886 6.50744 24.0775 6.17308C24.0664 5.83871 24.3248 5.55853 24.6546 5.54727C24.9844 5.53602 25.2608 5.79795 25.2719 6.13232Z" fill="#006FFF" fill-opacity="0.35"/>
<path d="M26.5334 8.10965C26.5445 8.44402 26.2861 8.7242 25.9563 8.73545C25.6264 8.74671 25.35 8.48477 25.3389 8.15041C25.3278 7.81604 25.5862 7.53586 25.916 7.5246C26.2459 7.51335 26.5223 7.77528 26.5334 8.10965Z" fill="#006FFF" fill-opacity="0.35"/>
<path d="M27.6608 6.0508C27.6719 6.38517 27.4135 6.66535 27.0837 6.67661C26.7538 6.68786 26.4775 6.42593 26.4664 6.09156C26.4553 5.75719 26.7136 5.47701 27.0435 5.46575C27.3733 5.4545 27.6497 5.71643 27.6608 6.0508Z" fill="#006FFF" fill-opacity="0.35"/>
<path d="M28.9223 8.02813C28.9334 8.3625 28.675 8.64268 28.3451 8.65394C28.0153 8.66519 27.7389 8.40326 27.7278 8.06889C27.7167 7.73452 27.9751 7.45434 28.3049 7.44308C28.6348 7.43183 28.9112 7.69376 28.9223 8.02813Z" fill="#006FFF" fill-opacity="0.35"/>
<path d="M1.51702 10.9837C1.52813 11.318 1.26974 11.5982 0.939905 11.6095C0.610068 11.6207 0.333682 11.3588 0.32258 11.0244C0.311477 10.69 0.569862 10.4099 0.899699 10.3986C1.22954 10.3874 1.50592 10.6493 1.51702 10.9837Z" fill="#006FFF" fill-opacity="0.35"/>
<path d="M2.77848 12.961C2.78958 13.2954 2.5312 13.5755 2.20136 13.5868C1.87152 13.598 1.59514 13.3361 1.58403 13.0017C1.57293 12.6674 1.83132 12.3872 2.16115 12.3759C2.49099 12.3647 2.76738 12.6266 2.77848 12.961Z" fill="#006FFF" fill-opacity="0.35"/>
<path d="M3.90592 10.9021C3.91702 11.2365 3.65863 11.5167 3.3288 11.5279C2.99896 11.5392 2.72257 11.2773 2.71147 10.9429C2.70037 10.6085 2.95875 10.3283 3.28859 10.3171C3.61843 10.3058 3.89481 10.5678 3.90592 10.9021Z" fill="#006FFF" fill-opacity="0.35"/>
<path d="M5.16737 12.8795C5.17847 13.2138 4.92009 13.494 4.59025 13.5053C4.26041 13.5165 3.98403 13.2546 3.97293 12.9202C3.96182 12.5859 4.22021 12.3057 4.55005 12.2944C4.87988 12.2832 5.15627 12.5451 5.16737 12.8795Z" fill="#006FFF" fill-opacity="0.35"/>
<path d="M6.29481 10.8206C6.30591 11.155 6.04752 11.4352 5.71769 11.4464C5.38785 11.4577 5.11146 11.1957 5.10036 10.8614C5.08926 10.527 5.34764 10.2468 5.67748 10.2356C6.00732 10.2243 6.2837 10.4863 6.29481 10.8206Z" fill="#006FFF" fill-opacity="0.35"/>
<path d="M7.55626 12.798C7.56736 13.1323 7.30898 13.4125 6.97914 13.4238C6.64931 13.435 6.37292 13.1731 6.36182 12.8387C6.35071 12.5043 6.6091 12.2242 6.93894 12.2129C7.26877 12.2017 7.54516 12.4636 7.55626 12.798Z" fill="#006FFF" fill-opacity="0.35"/>
<path d="M8.6837 10.7391C8.6948 11.0735 8.43641 11.3537 8.10658 11.3649C7.77674 11.3762 7.50036 11.1142 7.48925 10.7799C7.47815 10.4455 7.73654 10.1653 8.06637 10.1541C8.39621 10.1428 8.6726 10.4047 8.6837 10.7391Z" fill="#006FFF" fill-opacity="0.35"/>
<path d="M9.94515 12.7164C9.95626 13.0508 9.69787 13.331 9.36803 13.3422C9.0382 13.3535 8.76181 13.0916 8.75071 12.7572C8.73961 12.4228 8.99799 12.1426 9.32783 12.1314C9.65766 12.1201 9.93405 12.3821 9.94515 12.7164Z" fill="#006FFF" fill-opacity="0.35"/>
<path d="M11.0726 10.6576C11.0837 10.992 10.8253 11.2721 10.4955 11.2834C10.1656 11.2947 9.88925 11.0327 9.87814 10.6983C9.86704 10.364 10.1254 10.0838 10.4553 10.0725C10.7851 10.0613 11.0615 10.3232 11.0726 10.6576Z" fill="#006FFF" fill-opacity="0.35"/>
<path d="M12.334 12.6349C12.3451 12.9693 12.0868 13.2495 11.7569 13.2607C11.4271 13.272 11.1507 13.01 11.1396 12.6757C11.1285 12.3413 11.3869 12.0611 11.7167 12.0499C12.0466 12.0386 12.3229 12.3006 12.334 12.6349Z" fill="#006FFF" fill-opacity="0.35"/>
<path d="M13.4615 10.5761C13.4726 10.9104 13.2142 11.1906 12.8844 11.2019C12.5545 11.2131 12.2781 10.9512 12.267 10.6168C12.2559 10.2825 12.5143 10.0023 12.8442 9.99103C13.174 9.97977 13.4504 10.2417 13.4615 10.5761Z" fill="#006FFF" fill-opacity="0.35"/>
<path d="M14.7229 12.5534C14.734 12.8878 14.4757 13.168 14.1458 13.1792C13.816 13.1905 13.5396 12.9285 13.5285 12.5942C13.5174 12.2598 13.7758 11.9796 14.1056 11.9684C14.4354 11.9571 14.7118 12.219 14.7229 12.5534Z" fill="#006FFF" fill-opacity="0.35"/>
<path d="M15.8504 10.4946C15.8615 10.8289 15.6031 11.1091 15.2733 11.1204C14.9434 11.1316 14.667 10.8697 14.6559 10.5353C14.6448 10.2009 14.9032 9.92077 15.233 9.90951C15.5629 9.89826 15.8393 10.1602 15.8504 10.4946Z" fill="#006FFF" fill-opacity="0.35"/>
<path d="M17.1118 12.4719C17.1229 12.8063 16.8645 13.0864 16.5347 13.0977C16.2049 13.1089 15.9285 12.847 15.9174 12.5126C15.9063 12.1783 16.1647 11.8981 16.4945 11.8868C16.8243 11.8756 17.1007 12.1375 17.1118 12.4719Z" fill="#006FFF" fill-opacity="0.35"/>
<path d="M18.2393 10.413C18.2504 10.7474 17.992 11.0276 17.6621 11.0388C17.3323 11.0501 17.0559 10.7882 17.0448 10.4538C17.0337 10.1194 17.2921 9.83925 17.6219 9.828C17.9518 9.81674 18.2282 10.0787 18.2393 10.413Z" fill="#006FFF" fill-opacity="0.35"/>
<path d="M19.5007 12.3904C19.5118 12.7247 19.2534 13.0049 18.9236 13.0162C18.5938 13.0274 18.3174 12.7655 18.3063 12.4311C18.2952 12.0968 18.5536 11.8166 18.8834 11.8053C19.2132 11.7941 19.4896 12.056 19.5007 12.3904Z" fill="#006FFF" fill-opacity="0.35"/>
<path d="M20.6282 10.3315C20.6393 10.6659 20.3809 10.9461 20.051 10.9573C19.7212 10.9686 19.4448 10.7067 19.4337 10.3723C19.4226 10.0379 19.681 9.75773 20.0108 9.74648C20.3407 9.73522 20.617 9.99716 20.6282 10.3315Z" fill="#006FFF" fill-opacity="0.35"/>
<path d="M21.8896 12.3089C21.9007 12.6432 21.6423 12.9234 21.3125 12.9347C20.9827 12.9459 20.7063 12.684 20.6952 12.3496C20.6841 12.0152 20.9424 11.7351 21.2723 11.7238C21.6021 11.7126 21.8785 11.9745 21.8896 12.3089Z" fill="#006FFF" fill-opacity="0.35"/>
<path d="M23.017 10.25C23.0281 10.5844 22.7698 10.8646 22.4399 10.8758C22.1101 10.8871 21.8337 10.6251 21.8226 10.2908C21.8115 9.9564 22.0699 9.67622 22.3997 9.66496C22.7296 9.65371 23.0059 9.91564 23.017 10.25Z" fill="#006FFF" fill-opacity="0.35"/>
<path d="M24.2785 12.2273C24.2896 12.5617 24.0312 12.8419 23.7014 12.8531C23.3715 12.8644 23.0952 12.6025 23.0841 12.2681C23.073 11.9337 23.3313 11.6535 23.6612 11.6423C23.991 11.631 24.2674 11.893 24.2785 12.2273Z" fill="#006FFF" fill-opacity="0.35"/>
<path d="M25.4059 10.1685C25.417 10.5029 25.1587 10.783 24.8288 10.7943C24.499 10.8056 24.2226 10.5436 24.2115 10.2093C24.2004 9.87488 24.4588 9.5947 24.7886 9.58345C25.1184 9.57219 25.3948 9.83413 25.4059 10.1685Z" fill="#006FFF" fill-opacity="0.35"/>
<path d="M26.6674 12.1458C26.6785 12.4802 26.4201 12.7604 26.0903 12.7716C25.7604 12.7829 25.484 12.5209 25.4729 12.1866C25.4618 11.8522 25.7202 11.572 26.0501 11.5608C26.3799 11.5495 26.6563 11.8115 26.6674 12.1458Z" fill="#006FFF" fill-opacity="0.35"/>
<path d="M27.7948 10.087C27.8059 10.4213 27.5475 10.7015 27.2177 10.7128C26.8879 10.724 26.6115 10.4621 26.6004 10.1277C26.5893 9.79337 26.8477 9.51319 27.1775 9.50193C27.5073 9.49067 27.7837 9.75261 27.7948 10.087Z" fill="#006FFF" fill-opacity="0.35"/>
<path d="M29.0563 12.0643C29.0674 12.3987 28.809 12.6789 28.4792 12.6901C28.1493 12.7014 27.8729 12.4394 27.8618 12.1051C27.8507 11.7707 28.1091 11.4905 28.439 11.4793C28.7688 11.468 29.0452 11.7299 29.0563 12.0643Z" fill="#006FFF" fill-opacity="0.35"/>
<path d="M1.65104 15.0198C1.66215 15.3542 1.40376 15.6344 1.07392 15.6456C0.744088 15.6569 0.467702 15.395 0.456599 15.0606C0.445497 14.7262 0.703882 14.446 1.03372 14.4348C1.36356 14.4235 1.63994 14.6855 1.65104 15.0198Z" fill="#006FFF" fill-opacity="0.35"/>
<path d="M2.9125 16.9972C2.9236 17.3315 2.66522 17.6117 2.33538 17.623C2.00554 17.6342 1.72916 17.3723 1.71805 17.0379C1.70695 16.7036 1.96534 16.4234 2.29517 16.4121C2.62501 16.4009 2.9014 16.6628 2.9125 16.9972Z" fill="#006FFF" fill-opacity="0.35"/>
<path d="M4.03994 14.9383C4.05104 15.2727 3.79265 15.5529 3.46282 15.5641C3.13298 15.5754 2.85659 15.3134 2.84549 14.9791C2.83439 14.6447 3.09277 14.3645 3.42261 14.3533C3.75245 14.342 4.02883 14.6039 4.03994 14.9383Z" fill="#006FFF" fill-opacity="0.35"/>
<path d="M5.30139 16.9156C5.31249 17.25 5.05411 17.5302 4.72427 17.5415C4.39443 17.5527 4.11805 17.2908 4.10695 16.9564C4.09584 16.622 4.35423 16.3419 4.68407 16.3306C5.0139 16.3193 5.29029 16.5813 5.30139 16.9156Z" fill="#006FFF" fill-opacity="0.35"/>
<path d="M6.42883 14.8568C6.43993 15.1912 6.18154 15.4714 5.85171 15.4826C5.52187 15.4939 5.24548 15.2319 5.23438 14.8976C5.22328 14.5632 5.48166 14.283 5.8115 14.2718C6.14134 14.2605 6.41772 14.5224 6.42883 14.8568Z" fill="#006FFF" fill-opacity="0.35"/>
<path d="M7.69028 16.8341C7.70138 17.1685 7.443 17.4487 7.11316 17.4599C6.78332 17.4712 6.50694 17.2093 6.49584 16.8749C6.48473 16.5405 6.74312 16.2603 7.07296 16.2491C7.40279 16.2378 7.67918 16.4998 7.69028 16.8341Z" fill="#006FFF" fill-opacity="0.35"/>
<path d="M8.81772 14.7753C8.82882 15.1097 8.57043 15.3898 8.2406 15.4011C7.91076 15.4123 7.63437 15.1504 7.62327 14.816C7.61217 14.4817 7.87055 14.2015 8.20039 14.1902C8.53023 14.179 8.80662 14.4409 8.81772 14.7753Z" fill="#006FFF" fill-opacity="0.35"/>
<path d="M10.0792 16.7526C10.0903 17.087 9.83189 17.3672 9.50205 17.3784C9.17222 17.3897 8.89583 17.1277 8.88473 16.7934C8.87362 16.459 9.13201 16.1788 9.46185 16.1676C9.79168 16.1563 10.0681 16.4182 10.0792 16.7526Z" fill="#006FFF" fill-opacity="0.35"/>
<path d="M11.2066 14.6938C11.2177 15.0281 10.9593 15.3083 10.6295 15.3196C10.2997 15.3308 10.0233 15.0689 10.0122 14.7345C10.0011 14.4002 10.2594 14.12 10.5893 14.1087C10.9191 14.0975 11.1955 14.3594 11.2066 14.6938Z" fill="#006FFF" fill-opacity="0.35"/>
<path d="M12.4681 16.6711C12.4792 17.0055 12.2208 17.2856 11.8909 17.2969C11.5611 17.3082 11.2847 17.0462 11.2736 16.7119C11.2625 16.3775 11.5209 16.0973 11.8507 16.086C12.1806 16.0748 12.457 16.3367 12.4681 16.6711Z" fill="#006FFF" fill-opacity="0.35"/>
<path d="M13.5955 14.6123C13.6066 14.9466 13.3482 15.2268 13.0184 15.2381C12.6885 15.2493 12.4122 14.9874 12.4011 14.653C12.39 14.3186 12.6483 14.0385 12.9782 14.0272C13.308 14.0159 13.5844 14.2779 13.5955 14.6123Z" fill="#006FFF" fill-opacity="0.35"/>
<path d="M14.857 16.5896C14.8681 16.9239 14.6097 17.2041 14.2798 17.2154C13.95 17.2266 13.6736 16.9647 13.6625 16.6303C13.6514 16.296 13.9098 16.0158 14.2396 16.0045C14.5695 15.9933 14.8459 16.2552 14.857 16.5896Z" fill="#006FFF" fill-opacity="0.35"/>
<path d="M15.9844 14.5307C15.9955 14.8651 15.7371 15.1453 15.4073 15.1565C15.0774 15.1678 14.801 14.9059 14.7899 14.5715C14.7788 14.2371 15.0372 13.9569 15.3671 13.9457C15.6969 13.9344 15.9733 14.1964 15.9844 14.5307Z" fill="#006FFF" fill-opacity="0.35"/>
<path d="M17.2458 16.5081C17.2569 16.8424 16.9986 17.1226 16.6687 17.1339C16.3389 17.1451 16.0625 16.8832 16.0514 16.5488C16.0403 16.2145 16.2987 15.9343 16.6285 15.923C16.9584 15.9118 17.2347 16.1737 17.2458 16.5081Z" fill="#006FFF" fill-opacity="0.35"/>
<path d="M18.3733 14.4492C18.3844 14.7836 18.126 15.0638 17.7962 15.075C17.4663 15.0863 17.1899 14.8243 17.1788 14.49C17.1677 14.1556 17.4261 13.8754 17.756 13.8642C18.0858 13.8529 18.3622 14.1149 18.3733 14.4492Z" fill="#006FFF" fill-opacity="0.35"/>
<path d="M19.6347 16.4265C19.6458 16.7609 19.3875 17.0411 19.0576 17.0524C18.7278 17.0636 18.4514 16.8017 18.4403 16.4673C18.4292 16.1329 18.6876 15.8528 19.0174 15.8415C19.3472 15.8302 19.6236 16.0922 19.6347 16.4265Z" fill="#006FFF" fill-opacity="0.35"/>
<path d="M20.7622 14.3677C20.7733 14.7021 20.5149 14.9823 20.1851 14.9935C19.8552 15.0048 19.5788 14.7428 19.5677 14.4085C19.5566 14.0741 19.815 13.7939 20.1448 13.7827C20.4747 13.7714 20.7511 14.0333 20.7622 14.3677Z" fill="#006FFF" fill-opacity="0.35"/>
<path d="M22.0236 16.345C22.0347 16.6794 21.7763 16.9596 21.4465 16.9708C21.1167 16.9821 20.8403 16.7202 20.8292 16.3858C20.8181 16.0514 21.0765 15.7712 21.4063 15.76C21.7361 15.7487 22.0125 16.0107 22.0236 16.345Z" fill="#006FFF" fill-opacity="0.35"/>
<path d="M23.1511 14.2862C23.1622 14.6206 22.9038 14.9007 22.5739 14.912C22.2441 14.9232 21.9677 14.6613 21.9566 14.3269C21.9455 13.9926 22.2039 13.7124 22.5337 13.7011C22.8636 13.6899 23.14 13.9518 23.1511 14.2862Z" fill="#006FFF" fill-opacity="0.35"/>
<path d="M24.4125 16.2635C24.4236 16.5979 24.1652 16.8781 23.8354 16.8893C23.5056 16.9006 23.2292 16.6386 23.2181 16.3043C23.207 15.9699 23.4654 15.6897 23.7952 15.6785C24.125 15.6672 24.4014 15.9291 24.4125 16.2635Z" fill="#006FFF" fill-opacity="0.35"/>
<path d="M25.54 14.2047C25.5511 14.539 25.2927 14.8192 24.9628 14.8305C24.633 14.8417 24.3566 14.5798 24.3455 14.2454C24.3344 13.9111 24.5928 13.6309 24.9226 13.6196C25.2525 13.6084 25.5289 13.8703 25.54 14.2047Z" fill="#006FFF" fill-opacity="0.35"/>
<path d="M26.8014 16.182C26.8125 16.5164 26.5541 16.7965 26.2243 16.8078C25.8945 16.8191 25.6181 16.5571 25.607 16.2228C25.5959 15.8884 25.8542 15.6082 26.1841 15.597C26.5139 15.5857 26.7903 15.8476 26.8014 16.182Z" fill="#006FFF" fill-opacity="0.35"/>
<path d="M27.9288 14.1232C27.9399 14.4575 27.6816 14.7377 27.3517 14.749C27.0219 14.7602 26.7455 14.4983 26.7344 14.1639C26.7233 13.8295 26.9817 13.5494 27.3115 13.5381C27.6414 13.5269 27.9177 13.7888 27.9288 14.1232Z" fill="#006FFF" fill-opacity="0.35"/>
<path d="M29.1903 16.1005C29.2014 16.4349 28.943 16.715 28.6132 16.7263C28.2833 16.7375 28.007 16.4756 27.9959 16.1412C27.9848 15.8069 28.2431 15.5267 28.573 15.5154C28.9028 15.5042 29.1792 15.7661 29.1903 16.1005Z" fill="#006FFF" fill-opacity="0.35"/>
<path d="M1.78506 19.056C1.79617 19.3904 1.53778 19.6706 1.20794 19.6818C0.878107 19.6931 0.601721 19.4311 0.590619 19.0968C0.579516 18.7624 0.837901 18.4822 1.16774 18.471C1.49758 18.4597 1.77396 18.7216 1.78506 19.056Z" fill="#006FFF" fill-opacity="0.35"/>
<path d="M3.04652 21.0333C3.05762 21.3677 2.79924 21.6479 2.4694 21.6591C2.13956 21.6704 1.86318 21.4085 1.85207 21.0741C1.84097 20.7397 2.09936 20.4595 2.42919 20.4483C2.75903 20.437 3.03542 20.699 3.04652 21.0333Z" fill="#006FFF" fill-opacity="0.35"/>
<path d="M4.17396 18.9745C4.18506 19.3089 3.92667 19.589 3.59684 19.6003C3.267 19.6116 2.99061 19.3496 2.97951 19.0153C2.96841 18.6809 3.22679 18.4007 3.55663 18.3894C3.88647 18.3782 4.16285 18.6401 4.17396 18.9745Z" fill="#006FFF" fill-opacity="0.35"/>
<path d="M5.43541 20.9518C5.44651 21.2862 5.18813 21.5664 4.85829 21.5776C4.52845 21.5889 4.25207 21.3269 4.24096 20.9926C4.22986 20.6582 4.48825 20.378 4.81808 20.3668C5.14792 20.3555 5.42431 20.6175 5.43541 20.9518Z" fill="#006FFF" fill-opacity="0.35"/>
<path d="M6.56285 18.893C6.57395 19.2273 6.31556 19.5075 5.98573 19.5188C5.65589 19.53 5.3795 19.2681 5.3684 18.9337C5.3573 18.5994 5.61568 18.3192 5.94552 18.3079C6.27536 18.2967 6.55174 18.5586 6.56285 18.893Z" fill="#006FFF" fill-opacity="0.35"/>
<path d="M7.8243 20.8703C7.8354 21.2047 7.57702 21.4849 7.24718 21.4961C6.91734 21.5074 6.64096 21.2454 6.62986 20.9111C6.61875 20.5767 6.87714 20.2965 7.20698 20.2853C7.53681 20.274 7.8132 20.5359 7.8243 20.8703Z" fill="#006FFF" fill-opacity="0.35"/>
<path d="M8.95174 18.8115C8.96284 19.1458 8.70445 19.426 8.37462 19.4373C8.04478 19.4485 7.76839 19.1866 7.75729 18.8522C7.74619 18.5178 8.00457 18.2377 8.33441 18.2264C8.66425 18.2152 8.94063 18.4771 8.95174 18.8115Z" fill="#006FFF" fill-opacity="0.35"/>
<path d="M10.2132 20.7888C10.2243 21.1232 9.96591 21.4033 9.63607 21.4146C9.30624 21.4258 9.02985 21.1639 9.01875 20.8295C9.00764 20.4952 9.26603 20.215 9.59587 20.2037C9.9257 20.1925 10.2021 20.4544 10.2132 20.7888Z" fill="#006FFF" fill-opacity="0.35"/>
<path d="M11.3406 18.7299C11.3517 19.0643 11.0933 19.3445 10.7635 19.3557C10.4337 19.367 10.1573 19.1051 10.1462 18.7707C10.1351 18.4363 10.3935 18.1562 10.7233 18.1449C11.0531 18.1336 11.3295 18.3956 11.3406 18.7299Z" fill="#006FFF" fill-opacity="0.35"/>
<path d="M12.6021 20.7073C12.6132 21.0416 12.3548 21.3218 12.025 21.3331C11.6951 21.3443 11.4187 21.0824 11.4076 20.748C11.3965 20.4137 11.6549 20.1335 11.9848 20.1222C12.3146 20.111 12.591 20.3729 12.6021 20.7073Z" fill="#006FFF" fill-opacity="0.35"/>
<path d="M13.7295 18.6484C13.7406 18.9828 13.4822 19.263 13.1524 19.2742C12.8226 19.2855 12.5462 19.0236 12.5351 18.6892C12.524 18.3548 12.7824 18.0746 13.1122 18.0634C13.442 18.0521 13.7184 18.3141 13.7295 18.6484Z" fill="#006FFF" fill-opacity="0.35"/>
<path d="M14.991 20.6258C15.0021 20.9601 14.7437 21.2403 14.4139 21.2516C14.084 21.2628 13.8076 21.0009 13.7965 20.6665C13.7854 20.3321 14.0438 20.052 14.3736 20.0407C14.7035 20.0295 14.9799 20.2914 14.991 20.6258Z" fill="#006FFF" fill-opacity="0.35"/>
<path d="M16.1184 18.5669C16.1295 18.9013 15.8711 19.1815 15.5413 19.1927C15.2115 19.204 14.9351 18.942 14.924 18.6077C14.9129 18.2733 15.1712 17.9931 15.5011 17.9819C15.8309 17.9706 16.1073 18.2325 16.1184 18.5669Z" fill="#006FFF" fill-opacity="0.35"/>
<path d="M17.3799 20.5442C17.391 20.8786 17.1326 21.1588 16.8027 21.17C16.4729 21.1813 16.1965 20.9194 16.1854 20.585C16.1743 20.2506 16.4327 19.9704 16.7625 19.9592C17.0924 19.9479 17.3688 20.2099 17.3799 20.5442Z" fill="#006FFF" fill-opacity="0.35"/>
<path d="M18.5073 18.4854C18.5184 18.8198 18.26 19.0999 17.9302 19.1112C17.6003 19.1225 17.324 18.8605 17.3129 18.5262C17.3018 18.1918 17.5601 17.9116 17.89 17.9003C18.2198 17.8891 18.4962 18.151 18.5073 18.4854Z" fill="#006FFF" fill-opacity="0.35"/>
<path d="M19.7688 20.4627C19.7799 20.7971 19.5215 21.0773 19.1916 21.0885C18.8618 21.0998 18.5854 20.8378 18.5743 20.5035C18.5632 20.1691 18.8216 19.8889 19.1514 19.8777C19.4813 19.8664 19.7577 20.1284 19.7688 20.4627Z" fill="#006FFF" fill-opacity="0.35"/>
<path d="M20.8962 18.4039C20.9073 18.7382 20.6489 19.0184 20.3191 19.0297C19.9892 19.0409 19.7128 18.779 19.7017 18.4446C19.6906 18.1103 19.949 17.8301 20.2789 17.8188C20.6087 17.8076 20.8851 18.0695 20.8962 18.4039Z" fill="#006FFF" fill-opacity="0.35"/>
<path d="M22.1576 20.3812C22.1687 20.7156 21.9104 20.9958 21.5805 21.007C21.2507 21.0183 20.9743 20.7563 20.9632 20.422C20.9521 20.0876 21.2105 19.8074 21.5403 19.7962C21.8702 19.7849 22.1465 20.0468 22.1576 20.3812Z" fill="#006FFF" fill-opacity="0.35"/>
<path d="M23.2851 18.3224C23.2962 18.6567 23.0378 18.9369 22.708 18.9482C22.3781 18.9594 22.1017 18.6975 22.0906 18.3631C22.0795 18.0288 22.3379 17.7486 22.6678 17.7373C22.9976 17.7261 23.274 17.988 23.2851 18.3224Z" fill="#006FFF" fill-opacity="0.35"/>
<path d="M24.5465 20.2997C24.5576 20.6341 24.2993 20.9142 23.9694 20.9255C23.6396 20.9368 23.3632 20.6748 23.3521 20.3404C23.341 20.0061 23.5994 19.7259 23.9292 19.7146C24.259 19.7034 24.5354 19.9653 24.5465 20.2997Z" fill="#006FFF" fill-opacity="0.35"/>
<path d="M25.674 18.2408C25.6851 18.5752 25.4267 18.8554 25.0969 18.8667C24.767 18.8779 24.4906 18.616 24.4795 18.2816C24.4684 17.9472 24.7268 17.6671 25.0566 17.6558C25.3865 17.6445 25.6629 17.9065 25.674 18.2408Z" fill="#006FFF" fill-opacity="0.35"/>
<path d="M26.9354 20.2182C26.9465 20.5525 26.6881 20.8327 26.3583 20.844C26.0285 20.8552 25.7521 20.5933 25.741 20.2589C25.7299 19.9246 25.9883 19.6444 26.3181 19.6331C26.6479 19.6219 26.9243 19.8838 26.9354 20.2182Z" fill="#006FFF" fill-opacity="0.35"/>
<path d="M28.0629 18.1593C28.074 18.4937 27.8156 18.7739 27.4857 18.7851C27.1559 18.7964 26.8795 18.5345 26.8684 18.2001C26.8573 17.8657 27.1157 17.5855 27.4455 17.5743C27.7754 17.563 28.0518 17.825 28.0629 18.1593Z" fill="#006FFF" fill-opacity="0.35"/>
<path d="M29.3243 20.1367C29.3354 20.471 29.077 20.7512 28.7472 20.7625C28.4174 20.7737 28.141 20.5118 28.1299 20.1774C28.1188 19.843 28.3772 19.5629 28.707 19.5516C29.0368 19.5404 29.3132 19.8023 29.3243 20.1367Z" fill="#006FFF" fill-opacity="0.35"/>
<path d="M1.91908 23.0922C1.93019 23.4266 1.6718 23.7067 1.34196 23.718C1.01213 23.7292 0.735741 23.4673 0.724638 23.1329C0.713536 22.7986 0.971921 22.5184 1.30176 22.5071C1.6316 22.4959 1.90798 22.7578 1.91908 23.0922Z" fill="#006FFF" fill-opacity="0.35"/>
<path d="M3.18054 25.0695C3.19164 25.4039 2.93326 25.6841 2.60342 25.6953C2.27358 25.7066 1.9972 25.4446 1.98609 25.1103C1.97499 24.7759 2.23338 24.4957 2.56321 24.4845C2.89305 24.4732 3.16944 24.7351 3.18054 25.0695Z" fill="#006FFF" fill-opacity="0.35"/>
<path d="M4.30797 23.0107C4.31908 23.345 4.06069 23.6252 3.73085 23.6365C3.40102 23.6477 3.12463 23.3858 3.11353 23.0514C3.10243 22.7171 3.36081 22.4369 3.69065 22.4256C4.02049 22.4144 4.29687 22.6763 4.30797 23.0107Z" fill="#006FFF" fill-opacity="0.35"/>
<path d="M5.56943 24.988C5.58053 25.3224 5.32215 25.6025 4.99231 25.6138C4.66247 25.6251 4.38609 25.3631 4.37498 25.0288C4.36388 24.6944 4.62227 24.4142 4.9521 24.4029C5.28194 24.3917 5.55833 24.6536 5.56943 24.988Z" fill="#006FFF" fill-opacity="0.35"/>
<path d="M6.69687 22.9291C6.70797 23.2635 6.44958 23.5437 6.11975 23.555C5.78991 23.5662 5.51352 23.3043 5.50242 22.9699C5.49132 22.6355 5.7497 22.3554 6.07954 22.3441C6.40938 22.3328 6.68576 22.5948 6.69687 22.9291Z" fill="#006FFF" fill-opacity="0.35"/>
<path d="M7.95832 24.9065C7.96942 25.2408 7.71104 25.521 7.3812 25.5323C7.05136 25.5435 6.77498 25.2816 6.76388 24.9472C6.75277 24.6129 7.01116 24.3327 7.341 24.3214C7.67083 24.3102 7.94722 24.5721 7.95832 24.9065Z" fill="#006FFF" fill-opacity="0.35"/>
<path d="M9.08576 22.8476C9.09686 23.182 8.83847 23.4622 8.50864 23.4734C8.1788 23.4847 7.90241 23.2228 7.89131 22.8884C7.88021 22.554 8.13859 22.2738 8.46843 22.2626C8.79827 22.2513 9.07465 22.5133 9.08576 22.8476Z" fill="#006FFF" fill-opacity="0.35"/>
<path d="M10.3472 24.825C10.3583 25.1593 10.0999 25.4395 9.77009 25.4508C9.44025 25.462 9.16387 25.2001 9.15277 24.8657C9.14166 24.5314 9.40005 24.2512 9.72989 24.2399C10.0597 24.2287 10.3361 24.4906 10.3472 24.825Z" fill="#006FFF" fill-opacity="0.35"/>
<path d="M11.4746 22.7661C11.4857 23.1005 11.2274 23.3807 10.8975 23.3919C10.5677 23.4032 10.2913 23.1412 10.2802 22.8069C10.2691 22.4725 10.5275 22.1923 10.8573 22.1811C11.1872 22.1698 11.4635 22.4318 11.4746 22.7661Z" fill="#006FFF" fill-opacity="0.35"/>
<path d="M12.7361 24.7434C12.7472 25.0778 12.4888 25.358 12.159 25.3693C11.8291 25.3805 11.5528 25.1186 11.5417 24.7842C11.5306 24.4498 11.7889 24.1697 12.1188 24.1584C12.4486 24.1471 12.725 24.4091 12.7361 24.7434Z" fill="#006FFF" fill-opacity="0.35"/>
<path d="M13.8635 22.6846C13.8746 23.019 13.6163 23.2992 13.2864 23.3104C12.9566 23.3217 12.6802 23.0597 12.6691 22.7254C12.658 22.391 12.9164 22.1108 13.2462 22.0996C13.5761 22.0883 13.8524 22.3502 13.8635 22.6846Z" fill="#006FFF" fill-opacity="0.35"/>
<path d="M15.125 24.6619C15.1361 24.9963 14.8777 25.2765 14.5479 25.2877C14.218 25.299 13.9417 25.0371 13.9305 24.7027C13.9194 24.3683 14.1778 24.0881 14.5077 24.0769C14.8375 24.0656 15.1139 24.3276 15.125 24.6619Z" fill="#006FFF" fill-opacity="0.35"/>
<path d="M16.2524 22.6031C16.2635 22.9375 16.0051 23.2176 15.6753 23.2289C15.3455 23.2401 15.0691 22.9782 15.058 22.6438C15.0469 22.3095 15.3053 22.0293 15.6351 22.018C15.9649 22.0068 16.2413 22.2687 16.2524 22.6031Z" fill="#006FFF" fill-opacity="0.35"/>
<path d="M17.5139 24.5804C17.525 24.9148 17.2666 25.195 16.9368 25.2062C16.6069 25.2175 16.3305 24.9555 16.3194 24.6212C16.3083 24.2868 16.5667 24.0066 16.8966 23.9954C17.2264 23.9841 17.5028 24.246 17.5139 24.5804Z" fill="#006FFF" fill-opacity="0.35"/>
<path d="M18.6413 22.5216C18.6524 22.8559 18.394 23.1361 18.0642 23.1474C17.7344 23.1586 17.458 22.8967 17.4469 22.5623C17.4358 22.228 17.6942 21.9478 18.024 21.9365C18.3538 21.9253 18.6302 22.1872 18.6413 22.5216Z" fill="#006FFF" fill-opacity="0.35"/>
<path d="M19.9028 24.4989C19.9139 24.8333 19.6555 25.1134 19.3257 25.1247C18.9958 25.136 18.7194 24.874 18.7083 24.5397C18.6972 24.2053 18.9556 23.9251 19.2855 23.9139C19.6153 23.9026 19.8917 24.1645 19.9028 24.4989Z" fill="#006FFF" fill-opacity="0.35"/>
<path d="M21.0302 22.4401C21.0413 22.7744 20.7829 23.0546 20.4531 23.0659C20.1233 23.0771 19.8469 22.8152 19.8358 22.4808C19.8247 22.1464 20.083 21.8663 20.4129 21.855C20.7427 21.8438 21.0191 22.1057 21.0302 22.4401Z" fill="#006FFF" fill-opacity="0.35"/>
<path d="M22.2917 24.4174C22.3028 24.7517 22.0444 25.0319 21.7145 25.0432C21.3847 25.0544 21.1083 24.7925 21.0972 24.4581C21.0861 24.1238 21.3445 23.8436 21.6743 23.8323C22.0042 23.8211 22.2806 24.083 22.2917 24.4174Z" fill="#006FFF" fill-opacity="0.35"/>
<path d="M23.4191 22.3585C23.4302 22.6929 23.1718 22.9731 22.842 22.9843C22.5121 22.9956 22.2358 22.7337 22.2247 22.3993C22.2136 22.0649 22.4719 21.7847 22.8018 21.7735C23.1316 21.7622 23.408 22.0242 23.4191 22.3585Z" fill="#006FFF" fill-opacity="0.35"/>
<path d="M24.6806 24.3359C24.6917 24.6702 24.4333 24.9504 24.1034 24.9617C23.7736 24.9729 23.4972 24.711 23.4861 24.3766C23.475 24.0423 23.7334 23.7621 24.0632 23.7508C24.3931 23.7396 24.6695 24.0015 24.6806 24.3359Z" fill="#006FFF" fill-opacity="0.35"/>
<path d="M25.808 22.277C25.8191 22.6114 25.5607 22.8916 25.2309 22.9028C24.901 22.9141 24.6246 22.6521 24.6135 22.3178C24.6024 21.9834 24.8608 21.7032 25.1907 21.692C25.5205 21.6807 25.7969 21.9427 25.808 22.277Z" fill="#006FFF" fill-opacity="0.35"/>
<path d="M27.0694 24.2544C27.0806 24.5887 26.8222 24.8689 26.4923 24.8802C26.1625 24.8914 25.8861 24.6295 25.875 24.2951C25.8639 23.9607 26.1223 23.6806 26.4521 23.6693C26.782 23.658 27.0583 23.92 27.0694 24.2544Z" fill="#006FFF" fill-opacity="0.35"/>
<path d="M28.1969 22.1955C28.208 22.5299 27.9496 22.8101 27.6198 22.8213C27.2899 22.8326 27.0135 22.5706 27.0024 22.2363C26.9913 21.9019 27.2497 21.6217 27.5796 21.6105C27.9094 21.5992 28.1858 21.8611 28.1969 22.1955Z" fill="#006FFF" fill-opacity="0.35"/>
<path d="M29.4583 24.1728C29.4694 24.5072 29.2111 24.7874 28.8812 24.7986C28.5514 24.8099 28.275 24.548 28.2639 24.2136C28.2528 23.8792 28.5112 23.599 28.841 23.5878C29.1709 23.5765 29.4472 23.8385 29.4583 24.1728Z" fill="#006FFF" fill-opacity="0.35"/>
<path d="M2.0531 27.1284C2.06421 27.4627 1.80582 27.7429 1.47598 27.7542C1.14615 27.7654 0.86976 27.5035 0.858658 27.1691C0.847555 26.8348 1.10594 26.5546 1.43578 26.5433C1.76561 26.5321 2.042 26.794 2.0531 27.1284Z" fill="#006FFF" fill-opacity="0.35"/>
<path d="M3.31456 29.1057C3.32566 29.4401 3.06728 29.7202 2.73744 29.7315C2.4076 29.7427 2.13122 29.4808 2.12011 29.1464C2.10901 28.8121 2.3674 28.5319 2.69723 28.5206C3.02707 28.5094 3.30346 28.7713 3.31456 29.1057Z" fill="#006FFF" fill-opacity="0.35"/>
<path d="M4.44199 27.0468C4.4531 27.3812 4.19471 27.6614 3.86487 27.6726C3.53504 27.6839 3.25865 27.422 3.24755 27.0876C3.23645 26.7532 3.49483 26.473 3.82467 26.4618C4.15451 26.4505 4.43089 26.7125 4.44199 27.0468Z" fill="#006FFF" fill-opacity="0.35"/>
<path d="M5.70345 29.0242C5.71455 29.3585 5.45617 29.6387 5.12633 29.65C4.79649 29.6612 4.52011 29.3993 4.509 29.0649C4.4979 28.7306 4.75629 28.4504 5.08612 28.4391C5.41596 28.4279 5.69235 28.6898 5.70345 29.0242Z" fill="#006FFF" fill-opacity="0.35"/>
<path d="M6.83089 26.9653C6.84199 27.2997 6.5836 27.5799 6.25377 27.5911C5.92393 27.6024 5.64754 27.3405 5.63644 27.0061C5.62534 26.6717 5.88372 26.3915 6.21356 26.3803C6.5434 26.369 6.81978 26.631 6.83089 26.9653Z" fill="#006FFF" fill-opacity="0.35"/>
<path d="M8.09234 28.9427C8.10344 29.277 7.84506 29.5572 7.51522 29.5685C7.18538 29.5797 6.909 29.3178 6.89789 28.9834C6.88679 28.649 7.14518 28.3689 7.47501 28.3576C7.80485 28.3464 8.08124 28.6083 8.09234 28.9427Z" fill="#006FFF" fill-opacity="0.35"/>
<path d="M9.21978 26.8838C9.23088 27.2182 8.97249 27.4984 8.64266 27.5096C8.31282 27.5209 8.03643 27.2589 8.02533 26.9246C8.01423 26.5902 8.27261 26.31 8.60245 26.2988C8.93229 26.2875 9.20867 26.5494 9.21978 26.8838Z" fill="#006FFF" fill-opacity="0.35"/>
<path d="M10.4812 28.8611C10.4923 29.1955 10.2339 29.4757 9.90411 29.4869C9.57427 29.4982 9.29789 29.2363 9.28679 28.9019C9.27568 28.5675 9.53407 28.2873 9.86391 28.2761C10.1937 28.2648 10.4701 28.5268 10.4812 28.8611Z" fill="#006FFF" fill-opacity="0.35"/>
<path d="M11.6087 26.8023C11.6198 27.1367 11.3614 27.4168 11.0315 27.4281C10.7017 27.4394 10.4253 27.1774 10.4142 26.8431C10.4031 26.5087 10.6615 26.2285 10.9913 26.2172C11.3212 26.206 11.5976 26.4679 11.6087 26.8023Z" fill="#006FFF" fill-opacity="0.35"/>
<path d="M12.8701 28.7796C12.8812 29.114 12.6228 29.3942 12.293 29.4054C11.9632 29.4167 11.6868 29.1547 11.6757 28.8204C11.6646 28.486 11.923 28.2058 12.2528 28.1946C12.5826 28.1833 12.859 28.4453 12.8701 28.7796Z" fill="#006FFF" fill-opacity="0.35"/>
<path d="M13.9976 26.7208C14.0087 27.0551 13.7503 27.3353 13.4204 27.3466C13.0906 27.3578 12.8142 27.0959 12.8031 26.7615C12.792 26.4272 13.0504 26.147 13.3802 26.1357C13.7101 26.1245 13.9865 26.3864 13.9976 26.7208Z" fill="#006FFF" fill-opacity="0.35"/>
<path d="M15.259 28.6981C15.2701 29.0325 15.0117 29.3127 14.6819 29.3239C14.3521 29.3352 14.0757 29.0732 14.0646 28.7389C14.0535 28.4045 14.3119 28.1243 14.6417 28.1131C14.9715 28.1018 15.2479 28.3637 15.259 28.6981Z" fill="#006FFF" fill-opacity="0.35"/>
<path d="M16.3864 26.6393C16.3976 26.9736 16.1392 27.2538 15.8093 27.2651C15.4795 27.2763 15.2031 27.0144 15.192 26.68C15.1809 26.3457 15.4393 26.0655 15.7691 26.0542C16.099 26.043 16.3753 26.3049 16.3864 26.6393Z" fill="#006FFF" fill-opacity="0.35"/>
<path d="M17.6479 28.6166C17.659 28.951 17.4006 29.2311 17.0708 29.2424C16.7409 29.2537 16.4646 28.9917 16.4535 28.6573C16.4424 28.323 16.7007 28.0428 17.0306 28.0315C17.3604 28.0203 17.6368 28.2822 17.6479 28.6166Z" fill="#006FFF" fill-opacity="0.35"/>
<path d="M18.7753 26.5577C18.7864 26.8921 18.5281 27.1723 18.1982 27.1836C17.8684 27.1948 17.592 26.9329 17.5809 26.5985C17.5698 26.2641 17.8282 25.984 18.158 25.9727C18.4879 25.9614 18.7642 26.2234 18.7753 26.5577Z" fill="#006FFF" fill-opacity="0.35"/>
<path d="M20.0368 28.5351C20.0479 28.8694 19.7895 29.1496 19.4597 29.1609C19.1298 29.1721 18.8535 28.9102 18.8424 28.5758C18.8312 28.2415 19.0896 27.9613 19.4195 27.95C19.7493 27.9388 20.0257 28.2007 20.0368 28.5351Z" fill="#006FFF" fill-opacity="0.35"/>
<path d="M21.1642 26.4762C21.1753 26.8106 20.9169 27.0908 20.5871 27.102C20.2573 27.1133 19.9809 26.8514 19.9698 26.517C19.9587 26.1826 20.2171 25.9024 20.5469 25.8912C20.8767 25.8799 21.1531 26.1419 21.1642 26.4762Z" fill="#006FFF" fill-opacity="0.35"/>
<path d="M22.4257 28.4536C22.4368 28.7879 22.1784 29.0681 21.8486 29.0794C21.5187 29.0906 21.2423 28.8287 21.2312 28.4943C21.2201 28.1599 21.4785 27.8798 21.8084 27.8685C22.1382 27.8573 22.4146 28.1192 22.4257 28.4536Z" fill="#006FFF" fill-opacity="0.35"/>
<path d="M23.5531 26.3947C23.5642 26.7291 23.3058 27.0093 22.976 27.0205C22.6462 27.0318 22.3698 26.7698 22.3587 26.4355C22.3476 26.1011 22.606 25.8209 22.9358 25.8097C23.2656 25.7984 23.542 26.0603 23.5531 26.3947Z" fill="#006FFF" fill-opacity="0.35"/>
<path d="M24.8146 28.372C24.8257 28.7064 24.5673 28.9866 24.2375 28.9978C23.9076 29.0091 23.6312 28.7472 23.6201 28.4128C23.609 28.0784 23.8674 27.7983 24.1973 27.787C24.5271 27.7757 24.8035 28.0377 24.8146 28.372Z" fill="#006FFF" fill-opacity="0.35"/>
<path d="M25.942 26.3132C25.9531 26.6476 25.6947 26.9277 25.3649 26.939C25.0351 26.9503 24.7587 26.6883 24.7476 26.354C24.7365 26.0196 24.9949 25.7394 25.3247 25.7281C25.6545 25.7169 25.9309 25.9788 25.942 26.3132Z" fill="#006FFF" fill-opacity="0.35"/>
<path d="M27.2035 28.2905C27.2146 28.6249 26.9562 28.9051 26.6263 28.9163C26.2965 28.9276 26.0201 28.6657 26.009 28.3313C25.9979 27.9969 26.2563 27.7167 26.5861 27.7055C26.916 27.6942 27.1924 27.9562 27.2035 28.2905Z" fill="#006FFF" fill-opacity="0.35"/>
<path d="M28.3309 26.2317C28.342 26.566 28.0836 26.8462 27.7538 26.8575C27.4239 26.8687 27.1476 26.6068 27.1365 26.2724C27.1254 25.9381 27.3837 25.6579 27.7136 25.6466C28.0434 25.6354 28.3198 25.8973 28.3309 26.2317Z" fill="#006FFF" fill-opacity="0.35"/>
<path d="M29.5924 28.209C29.6035 28.5434 29.3451 28.8236 29.0152 28.8348C28.6854 28.8461 28.409 28.5841 28.3979 28.2498C28.3868 27.9154 28.6452 27.6352 28.975 27.624C29.3049 27.6127 29.5813 27.8746 29.5924 28.209Z" fill="#006FFF" fill-opacity="0.35"/>
<path d="M2.18712 31.1645C2.19823 31.4989 1.93984 31.7791 1.61 31.7903C1.28017 31.8016 1.00378 31.5397 0.992677 31.2053C0.981575 30.8709 1.23996 30.5907 1.5698 30.5795C1.89963 30.5682 2.17602 30.8302 2.18712 31.1645Z" fill="#006FFF" fill-opacity="0.35"/>
<path d="M3.44858 33.1419C3.45968 33.4762 3.2013 33.7564 2.87146 33.7677C2.54162 33.7789 2.26524 33.517 2.25413 33.1826C2.24303 32.8483 2.50142 32.5681 2.83125 32.5568C3.16109 32.5456 3.43748 32.8075 3.44858 33.1419Z" fill="#006FFF" fill-opacity="0.35"/>
<path d="M4.57601 31.083C4.58712 31.4174 4.32873 31.6976 3.99889 31.7088C3.66906 31.7201 3.39267 31.4581 3.38157 31.1238C3.37047 30.7894 3.62885 30.5092 3.95869 30.498C4.28853 30.4867 4.56491 30.7487 4.57601 31.083Z" fill="#006FFF" fill-opacity="0.35"/>
<path d="M5.83747 33.0603C5.84857 33.3947 5.59019 33.6749 5.26035 33.6862C4.93051 33.6974 4.65413 33.4355 4.64302 33.1011C4.63192 32.7667 4.89031 32.4866 5.22014 32.4753C5.54998 32.464 5.82637 32.726 5.83747 33.0603Z" fill="#006FFF" fill-opacity="0.35"/>
<path d="M6.9649 31.0015C6.97601 31.3359 6.71762 31.6161 6.38778 31.6273C6.05795 31.6386 5.78156 31.3766 5.77046 31.0423C5.75936 30.7079 6.01774 30.4277 6.34758 30.4165C6.67742 30.4052 6.9538 30.6671 6.9649 31.0015Z" fill="#006FFF" fill-opacity="0.35"/>
<path d="M8.22636 32.9788C8.23746 33.3132 7.97908 33.5934 7.64924 33.6046C7.3194 33.6159 7.04302 33.354 7.03191 33.0196C7.02081 32.6852 7.2792 32.405 7.60903 32.3938C7.93887 32.3825 8.21526 32.6445 8.22636 32.9788Z" fill="#006FFF" fill-opacity="0.35"/>
<path d="M9.3538 30.92C9.3649 31.2544 9.10651 31.5345 8.77668 31.5458C8.44684 31.557 8.17045 31.2951 8.15935 30.9607C8.14825 30.6264 8.40663 30.3462 8.73647 30.3349C9.06631 30.3237 9.34269 30.5856 9.3538 30.92Z" fill="#006FFF" fill-opacity="0.35"/>
<path d="M10.6153 32.8973C10.6264 33.2317 10.368 33.5119 10.0381 33.5231C9.70829 33.5344 9.43191 33.2724 9.42081 32.9381C9.4097 32.6037 9.66809 32.3235 9.99793 32.3123C10.3278 32.301 10.6041 32.5629 10.6153 32.8973Z" fill="#006FFF" fill-opacity="0.35"/>
<path d="M11.7427 30.8385C11.7538 31.1728 11.4954 31.453 11.1656 31.4643C10.8357 31.4755 10.5593 31.2136 10.5482 30.8792C10.5371 30.5449 10.7955 30.2647 11.1254 30.2534C11.4552 30.2422 11.7316 30.5041 11.7427 30.8385Z" fill="#006FFF" fill-opacity="0.35"/>
<path d="M13.0041 32.8158C13.0152 33.1502 12.7569 33.4303 12.427 33.4416C12.0972 33.4529 11.8208 33.1909 11.8097 32.8566C11.7986 32.5222 12.057 32.242 12.3868 32.2308C12.7167 32.2195 12.993 32.4814 13.0041 32.8158Z" fill="#006FFF" fill-opacity="0.35"/>
<path d="M14.1316 30.757C14.1427 31.0913 13.8843 31.3715 13.5545 31.3828C13.2246 31.394 12.9482 31.1321 12.9371 30.7977C12.926 30.4633 13.1844 30.1832 13.5143 30.1719C13.8441 30.1607 14.1205 30.4226 14.1316 30.757Z" fill="#006FFF" fill-opacity="0.35"/>
<path d="M15.393 32.7343C15.4041 33.0687 15.1457 33.3488 14.8159 33.3601C14.4861 33.3713 14.2097 33.1094 14.1986 32.775C14.1875 32.4407 14.4459 32.1605 14.7757 32.1492C15.1055 32.138 15.3819 32.3999 15.393 32.7343Z" fill="#006FFF" fill-opacity="0.35"/>
<path d="M16.5205 30.6754C16.5316 31.0098 16.2732 31.29 15.9433 31.3012C15.6135 31.3125 15.3371 31.0506 15.326 30.7162C15.3149 30.3818 15.5733 30.1016 15.9031 30.0904C16.233 30.0791 16.5094 30.3411 16.5205 30.6754Z" fill="#006FFF" fill-opacity="0.35"/>
<path d="M17.7819 32.6528C17.793 32.9871 17.5346 33.2673 17.2048 33.2786C16.875 33.2898 16.5986 33.0279 16.5875 32.6935C16.5764 32.3592 16.8348 32.079 17.1646 32.0677C17.4944 32.0565 17.7708 32.3184 17.7819 32.6528Z" fill="#006FFF" fill-opacity="0.35"/>
<path d="M18.9094 30.5939C18.9205 30.9283 18.6621 31.2085 18.3322 31.2197C18.0024 31.231 17.726 30.969 17.7149 30.6347C17.7038 30.3003 17.9622 30.0201 18.292 30.0089C18.6219 29.9976 18.8983 30.2596 18.9094 30.5939Z" fill="#006FFF" fill-opacity="0.35"/>
<path d="M20.1708 32.5713C20.1819 32.9056 19.9235 33.1858 19.5937 33.1971C19.2639 33.2083 18.9875 32.9464 18.9764 32.612C18.9653 32.2776 19.2237 31.9975 19.5535 31.9862C19.8833 31.9749 20.1597 32.2369 20.1708 32.5713Z" fill="#006FFF" fill-opacity="0.35"/>
<path d="M21.2982 30.5124C21.3094 30.8468 21.051 31.127 20.7211 31.1382C20.3913 31.1495 20.1149 30.8875 20.1038 30.5532C20.0927 30.2188 20.3511 29.9386 20.6809 29.9274C21.0108 29.9161 21.2871 30.178 21.2982 30.5124Z" fill="#006FFF" fill-opacity="0.35"/>
<path d="M22.5597 32.4897C22.5708 32.8241 22.3124 33.1043 21.9826 33.1155C21.6527 33.1268 21.3764 32.8649 21.3653 32.5305C21.3542 32.1961 21.6125 31.9159 21.9424 31.9047C22.2722 31.8934 22.5486 32.1554 22.5597 32.4897Z" fill="#006FFF" fill-opacity="0.35"/>
<path d="M23.6871 30.4309C23.6982 30.7653 23.4399 31.0454 23.11 31.0567C22.7802 31.0679 22.5038 30.806 22.4927 30.4716C22.4816 30.1373 22.74 29.8571 23.0698 29.8458C23.3997 29.8346 23.676 30.0965 23.6871 30.4309Z" fill="#006FFF" fill-opacity="0.35"/>
<path d="M24.9486 32.4082C24.9597 32.7426 24.7013 33.0228 24.3715 33.034C24.0416 33.0453 23.7653 32.7833 23.7542 32.449C23.743 32.1146 24.0014 31.8344 24.3313 31.8232C24.6611 31.8119 24.9375 32.0739 24.9486 32.4082Z" fill="#006FFF" fill-opacity="0.35"/>
<path d="M26.076 30.3494C26.0871 30.6837 25.8287 30.9639 25.4989 30.9752C25.1691 30.9864 24.8927 30.7245 24.8816 30.3901C24.8705 30.0558 25.1289 29.7756 25.4587 29.7643C25.7885 29.7531 26.0649 30.015 26.076 30.3494Z" fill="#006FFF" fill-opacity="0.35"/>
<path d="M27.3375 32.3267C27.3486 32.6611 27.0902 32.9413 26.7604 32.9525C26.4305 32.9638 26.1541 32.7018 26.143 32.3675C26.1319 32.0331 26.3903 31.7529 26.7202 31.7417C27.05 31.7304 27.3264 31.9923 27.3375 32.3267Z" fill="#006FFF" fill-opacity="0.35"/>
<path d="M28.4649 30.2679C28.476 30.6022 28.2176 30.8824 27.8878 30.8937C27.558 30.9049 27.2816 30.643 27.2705 30.3086C27.2594 29.9742 27.5178 29.6941 27.8476 29.6828C28.1774 29.6716 28.4538 29.9335 28.4649 30.2679Z" fill="#006FFF" fill-opacity="0.35"/>
<path d="M29.7264 32.2452C29.7375 32.5796 29.4791 32.8597 29.1493 32.871C28.8194 32.8822 28.543 32.6203 28.5319 32.2859C28.5208 31.9516 28.7792 31.6714 29.1091 31.6601C29.4389 31.6489 29.7153 31.9108 29.7264 32.2452Z" fill="#006FFF" fill-opacity="0.35"/>
<path d="M2.32114 35.2007C2.33224 35.5351 2.07386 35.8153 1.74402 35.8265C1.41419 35.8378 1.1378 35.5758 1.1267 35.2415C1.11559 34.9071 1.37398 34.6269 1.70382 34.6157C2.03365 34.6044 2.31004 34.8663 2.32114 35.2007Z" fill="#006FFF" fill-opacity="0.35"/>
<path d="M3.5826 37.178C3.5937 37.5124 3.33531 37.7926 3.00548 37.8038C2.67564 37.8151 2.39925 37.5532 2.38815 37.2188C2.37705 36.8844 2.63543 36.6042 2.96527 36.593C3.29511 36.5817 3.57149 36.8437 3.5826 37.178Z" fill="#006FFF" fill-opacity="0.35"/>
<path d="M4.71003 35.1192C4.72114 35.4536 4.46275 35.7337 4.13291 35.745C3.80308 35.7563 3.52669 35.4943 3.51559 35.16C3.50449 34.8256 3.76287 34.5454 4.09271 34.5341C4.42254 34.5229 4.69893 34.7848 4.71003 35.1192Z" fill="#006FFF" fill-opacity="0.35"/>
<path d="M5.97149 37.0965C5.98259 37.4309 5.72421 37.7111 5.39437 37.7223C5.06453 37.7336 4.78815 37.4716 4.77704 37.1373C4.76594 36.8029 5.02433 36.5227 5.35416 36.5115C5.684 36.5002 5.96039 36.7622 5.97149 37.0965Z" fill="#006FFF" fill-opacity="0.35"/>
<path d="M7.09892 35.0377C7.11003 35.372 6.85164 35.6522 6.5218 35.6635C6.19197 35.6747 5.91558 35.4128 5.90448 35.0784C5.89338 34.7441 6.15176 34.4639 6.4816 34.4526C6.81144 34.4414 7.08782 34.7033 7.09892 35.0377Z" fill="#006FFF" fill-opacity="0.35"/>
<path d="M8.36038 37.015C8.37148 37.3494 8.1131 37.6296 7.78326 37.6408C7.45342 37.6521 7.17704 37.3901 7.16593 37.0558C7.15483 36.7214 7.41322 36.4412 7.74305 36.43C8.07289 36.4187 8.34928 36.6806 8.36038 37.015Z" fill="#006FFF" fill-opacity="0.35"/>
<path d="M9.48782 34.9562C9.49892 35.2905 9.24053 35.5707 8.9107 35.582C8.58086 35.5932 8.30447 35.3313 8.29337 34.9969C8.28227 34.6626 8.54065 34.3824 8.87049 34.3711C9.20033 34.3599 9.47671 34.6218 9.48782 34.9562Z" fill="#006FFF" fill-opacity="0.35"/>
<path d="M10.7493 36.9335C10.7604 37.2679 10.502 37.548 10.1722 37.5593C9.84231 37.5706 9.56593 37.3086 9.55483 36.9742C9.54372 36.6399 9.80211 36.3597 10.1319 36.3484C10.4618 36.3372 10.7382 36.5991 10.7493 36.9335Z" fill="#006FFF" fill-opacity="0.35"/>
<path d="M11.8767 34.8746C11.8878 35.209 11.6294 35.4892 11.2996 35.5005C10.9697 35.5117 10.6934 35.2498 10.6823 34.9154C10.6712 34.581 10.9295 34.3009 11.2594 34.2896C11.5892 34.2783 11.8656 34.5403 11.8767 34.8746Z" fill="#006FFF" fill-opacity="0.35"/>
<path d="M13.1382 36.852C13.1493 37.1863 12.8909 37.4665 12.561 37.4778C12.2312 37.489 11.9548 37.2271 11.9437 36.8927C11.9326 36.5584 12.191 36.2782 12.5208 36.2669C12.8507 36.2557 13.1271 36.5176 13.1382 36.852Z" fill="#006FFF" fill-opacity="0.35"/>
<path d="M14.2656 34.7931C14.2767 35.1275 14.0183 35.4077 13.6885 35.4189C13.3586 35.4302 13.0823 35.1683 13.0712 34.8339C13.06 34.4995 13.3184 34.2193 13.6483 34.2081C13.9781 34.1968 14.2545 34.4588 14.2656 34.7931Z" fill="#006FFF" fill-opacity="0.35"/>
<path d="M15.5271 36.7705C15.5382 37.1048 15.2798 37.385 14.9499 37.3963C14.6201 37.4075 14.3437 37.1456 14.3326 36.8112C14.3215 36.4768 14.5799 36.1967 14.9097 36.1854C15.2396 36.1742 15.5159 36.4361 15.5271 36.7705Z" fill="#006FFF" fill-opacity="0.35"/>
<path d="M16.6545 34.7116C16.6656 35.046 16.4072 35.3262 16.0774 35.3374C15.7475 35.3487 15.4711 35.0867 15.46 34.7524C15.4489 34.418 15.7073 34.1378 16.0372 34.1266C16.367 34.1153 16.6434 34.3772 16.6545 34.7116Z" fill="#006FFF" fill-opacity="0.35"/>
<path d="M17.9159 36.6889C17.927 37.0233 17.6687 37.3035 17.3388 37.3147C17.009 37.326 16.7326 37.0641 16.7215 36.7297C16.7104 36.3953 16.9688 36.1151 17.2986 36.1039C17.6285 36.0926 17.9048 36.3546 17.9159 36.6889Z" fill="#006FFF" fill-opacity="0.35"/>
<path d="M19.0434 34.6301C19.0545 34.9645 18.7961 35.2446 18.4663 35.2559C18.1364 35.2672 17.86 35.0052 17.8489 34.6709C17.8378 34.3365 18.0962 34.0563 18.4261 34.045C18.7559 34.0338 19.0323 34.2957 19.0434 34.6301Z" fill="#006FFF" fill-opacity="0.35"/>
<path d="M20.3048 36.6074C20.3159 36.9418 20.0576 37.222 19.7277 37.2332C19.3979 37.2445 19.1215 36.9826 19.1104 36.6482C19.0993 36.3138 19.3577 36.0336 19.6875 36.0224C20.0173 36.0111 20.2937 36.2731 20.3048 36.6074Z" fill="#006FFF" fill-opacity="0.35"/>
<path d="M21.4323 34.5486C21.4434 34.8829 21.185 35.1631 20.8551 35.1744C20.5253 35.1856 20.2489 34.9237 20.2378 34.5893C20.2267 34.255 20.4851 33.9748 20.8149 33.9635C21.1448 33.9523 21.4212 34.2142 21.4323 34.5486Z" fill="#006FFF" fill-opacity="0.35"/>
<path d="M22.6937 36.5259C22.7048 36.8603 22.4464 37.1405 22.1166 37.1517C21.7868 37.163 21.5104 36.901 21.4993 36.5667C21.4882 36.2323 21.7466 35.9521 22.0764 35.9409C22.4062 35.9296 22.6826 36.1915 22.6937 36.5259Z" fill="#006FFF" fill-opacity="0.35"/>
<path d="M23.8212 34.4671C23.8323 34.8014 23.5739 35.0816 23.244 35.0929C22.9142 35.1041 22.6378 34.8422 22.6267 34.5078C22.6156 34.1735 22.874 33.8933 23.2038 33.882C23.5337 33.8708 23.8101 34.1327 23.8212 34.4671Z" fill="#006FFF" fill-opacity="0.35"/>
<path d="M25.0826 36.4444C25.0937 36.7788 24.8353 37.0589 24.5055 37.0702C24.1757 37.0815 23.8993 36.8195 23.8882 36.4852C23.8771 36.1508 24.1355 35.8706 24.4653 35.8593C24.7951 35.8481 25.0715 36.11 25.0826 36.4444Z" fill="#006FFF" fill-opacity="0.35"/>
<path d="M26.2101 34.3855C26.2212 34.7199 25.9628 35.0001 25.6329 35.0114C25.3031 35.0226 25.0267 34.7607 25.0156 34.4263C25.0045 34.0919 25.2629 33.8118 25.5927 33.8005C25.9226 33.7892 26.1989 34.0512 26.2101 34.3855Z" fill="#006FFF" fill-opacity="0.35"/>
<path d="M27.4715 36.3629C27.4826 36.6972 27.2242 36.9774 26.8944 36.9887C26.5646 36.9999 26.2882 36.738 26.2771 36.4036C26.266 36.0693 26.5243 35.7891 26.8542 35.7778C27.184 35.7666 27.4604 36.0285 27.4715 36.3629Z" fill="#006FFF" fill-opacity="0.35"/>
<path d="M28.5989 34.304C28.61 34.6384 28.3517 34.9186 28.0218 34.9298C27.692 34.9411 27.4156 34.6792 27.4045 34.3448C27.3934 34.0104 27.6518 33.7302 27.9816 33.719C28.3115 33.7077 28.5878 33.9697 28.5989 34.304Z" fill="#006FFF" fill-opacity="0.35"/>
<path d="M29.8604 36.2814C29.8715 36.6157 29.6131 36.8959 29.2833 36.9072C28.9534 36.9184 28.6771 36.6565 28.666 36.3221C28.6549 35.9878 28.9132 35.7076 29.2431 35.6963C29.5729 35.6851 29.8493 35.947 29.8604 36.2814Z" fill="#006FFF" fill-opacity="0.35"/>
</g>
<path d="M7.8031 26.3686L4.63848 2.4167L25.958 13.2284L19.9064 17.6085L26.3875 26.8106L20.3358 31.1907L13.8547 21.9885L7.8031 26.3686Z" fill="#F5F9FF" stroke="black" stroke-width="2"/>
<path opacity="0.5" d="M7.85376 6.33447L9.92234 21.1016M15.752 20.1171L20.8294 27.796" stroke="#66A9FF" stroke-width="2"/>
</svg>
