<svg width="142" height="82" viewBox="0 0 142 82" fill="none" xmlns="http://www.w3.org/2000/svg">
<rect y="35.1818" width="134" height="48" rx="24" transform="rotate(-15 0 35.1818)" fill="#12D87A"/>
<path d="M38.2086 57.0374L40.1907 56.5063L40.097 43.1515L38.2193 43.6546L38.4009 53.9298L33.2293 44.9917L31.2472 45.5228L31.1981 55.8411L26.2225 46.8692L24.3447 47.3723L30.941 58.9847L32.9057 58.4583L32.943 47.9568L38.2086 57.0374ZM47.1984 54.815C49.3717 54.2326 50.6231 52.5742 50.5254 50.4015L48.7868 50.8673C48.8126 52.1462 48.0995 53.1013 46.7955 53.4507C45.2481 53.8654 44.0157 53.0216 43.3735 51.1811L50.2412 49.3409C49.7529 46.2665 47.331 44.5302 44.5839 45.2663C42.0454 45.9464 40.7208 48.4444 41.4522 51.1741C42.2302 54.0777 44.5382 55.5277 47.1984 54.815ZM44.9032 46.597C46.3289 46.215 47.5252 46.9939 48.0687 48.6745L43.0788 50.0115C42.8088 48.239 43.4949 46.9743 44.9032 46.597ZM59.9201 46.2816C59.1701 43.4823 57.022 41.9335 54.5531 42.595C53.3013 42.9305 52.4084 43.8406 52.0679 45.1431L50.7681 40.2922L49.0121 40.7627L52.357 53.2463L53.9914 52.8084L53.5488 51.1567C54.5216 52.1446 55.8114 52.5071 57.1154 52.1577C59.6017 51.4915 60.6609 49.046 59.9201 46.2816ZM58.0945 46.7707C58.6443 48.8223 57.861 50.2808 56.3484 50.6861C54.8531 51.0867 53.4143 50.1678 52.8692 48.1336C52.3148 46.0646 53.1595 44.6269 54.62 44.2356C56.1326 43.8303 57.5355 44.6843 58.0945 46.7707ZM62.2032 54.2046L65.644 36.3062L63.9054 36.7721L60.4472 54.6751L62.2032 54.2046ZM74.7638 47.2425L76.3982 46.8045L77.8 36.1797L80.3623 45.7423L82.1358 45.2672L78.7908 32.7835L76.4262 33.4171L74.9695 44.6716L68.0632 35.658L65.716 36.2869L69.061 48.7705L70.8171 48.3L68.2594 38.7547L74.7638 47.2425ZM87.7326 43.9538C90.3406 43.255 91.7034 40.6909 90.972 37.9612C90.2406 35.2315 87.7783 33.6923 85.1703 34.3912C82.5623 35.09 81.1995 37.6541 81.931 40.3838C82.6624 43.1135 85.1246 44.6526 87.7326 43.9538ZM87.318 42.4064C85.8054 42.8117 84.297 41.9115 83.7566 39.8946C83.2161 37.8777 84.077 36.3613 85.5896 35.956C87.1023 35.5506 88.6234 36.4289 89.1638 38.4457C89.7042 40.4626 88.8307 42.0011 87.318 42.4064ZM100.69 35.3572C99.9404 32.5579 97.7924 31.0091 95.3235 31.6706C94.0716 32.0061 93.1788 32.9162 92.8383 34.2187L91.5385 29.3678L89.7824 29.8383L93.1274 42.322L94.7618 41.884L94.3192 40.2323C95.292 41.2202 96.5818 41.5827 97.8858 41.2333C100.372 40.5671 101.431 38.1216 100.69 35.3572ZM98.8649 35.8463C99.4146 37.898 98.6314 39.3564 97.1188 39.7617C95.6235 40.1623 94.1846 39.2434 93.6396 37.2092C93.0852 35.1402 93.9299 33.7026 95.3904 33.3112C96.903 32.9059 98.3058 33.7599 98.8649 35.8463ZM101.932 27.794C101.751 27.1159 101.099 26.7689 100.351 26.9692C99.6035 27.1695 99.195 27.8008 99.3767 28.4788C99.5537 29.1395 100.228 29.4993 100.975 29.299C101.723 29.0987 102.11 28.4547 101.932 27.794ZM104.592 39.25L102.123 30.0351L100.367 30.5056L102.836 39.7205L104.592 39.25ZM107.934 38.3545L104.589 25.8709L102.816 26.3461L106.161 38.8297L107.934 38.3545ZM113.339 37.0926C115.512 36.5103 116.764 34.8519 116.666 32.6791L114.927 33.145C114.953 34.4239 114.24 35.379 112.936 35.7284C111.389 36.143 110.156 35.2992 109.514 33.4587L116.382 31.6185C115.894 28.5442 113.472 26.8079 110.725 27.5439C108.186 28.2241 106.861 30.7221 107.593 33.4518C108.371 36.3553 110.679 37.8054 113.339 37.0926ZM111.044 28.8746C112.47 28.4926 113.666 29.2715 114.209 30.9521L109.219 32.2892C108.949 30.5167 109.635 29.252 111.044 28.8746Z" fill="black" fill-opacity="0.5"/>
</svg>
