<svg width="60" height="60" viewBox="0 0 60 60" fill="none" xmlns="http://www.w3.org/2000/svg">
<path d="M58.75 36.7L56.0087 38.7787L53.275 36.875C53.275 36.675 53.275 36.4625 53.2625 36.25C53.2625 36.05 53.2625 35.8375 53.25 35.625C53.075 30.7 51.825 25.425 49.325 21.5625C47.4 18.6 44.9375 17.1875 42.1875 17.1875C39.3 17.1875 36.95 18.9125 34.35 22.6625C34.275 22.775 34.1875 22.8875 34.1125 23.0125C34.0625 23.075 34.025 23.1375 33.975 23.2125C33.85 23.4 33.725 23.5875 33.6 23.7875C32.475 25.5375 31.3 27.575 30.025 29.825C29.9125 30.0375 29.7875 30.25 29.675 30.4625C29.6375 30.5125 29.6 30.575 29.575 30.625L29.3125 31.0875L27.7625 33.825C24.125 40.2625 23.2 41.7375 21.3875 44.15C18.2 48.3875 15.475 50 11.8875 50C7.6375 50 4.9375 48.1625 3.275 45.3875C1.9125 43.1375 1.25 40.175 1.25 36.8L7.4625 37.0125C7.4625 39.2125 7.9375 40.8875 8.575 41.9125C9.4 43.2375 10.6125 43.75 11.875 43.75C13.4875 43.75 14.9875 43.4125 17.8375 39.4625C20.125 36.3 22.825 31.875 24.6375 29.0875L26.35 26.475L26.7125 25.9L27.0875 25.3375L27.7125 24.375C28.6625 22.925 29.6875 21.3875 30.7875 19.9125C30.9125 19.7375 31.0375 19.5625 31.175 19.3875C31.3 19.2125 31.4375 19.0375 31.5625 18.875C32.6875 17.4375 33.875 16.1 35.15 15C37.4625 12.9875 39.95 11.875 42.4625 11.875C46.675 11.875 50.6875 14.3125 53.7625 18.8875C56.9 23.5625 58.5375 29.3875 58.725 35.45C58.7375 35.65 58.7375 35.8625 58.7375 36.075C58.75 36.2875 58.75 36.4875 58.75 36.7Z" fill="#0081FB"/>
<path d="M6.14752 19.32C8.99377 14.9388 13.1038 11.875 17.8163 11.875C20.5463 11.875 23.2588 12.6812 26.0925 14.9912C29.1913 17.5162 32.495 21.6737 36.6163 28.5262L38.0938 30.985C41.6613 36.9175 43.69 39.9687 44.8788 41.4087C46.4063 43.2575 47.36 43.75 48.75 43.75C52.275 43.75 53.2713 40.575 53.2713 36.8737L58.75 36.7025C58.75 40.5712 57.9863 43.4137 56.6863 45.6587C55.4313 47.83 52.9838 50 48.8663 50C46.3063 50 44.0388 49.445 41.5313 47.0837C39.6038 45.2712 37.35 42.0512 35.6163 39.1575L30.4588 30.5587C27.8713 26.2437 25.4975 23.025 24.1238 21.5687C22.6463 20.0012 20.8213 18.1262 17.79 18.1262C15.3363 18.1262 13.1788 19.8287 11.435 22.4575L6.14752 19.32Z" fill="url(#paint0_linear_52_754)"/>
<path d="M17.8125 18.125C15.3637 18.125 13.2087 19.8275 11.4687 22.4563C9.0075 26.1713 7.5 31.7038 7.5 37.0175C7.5 39.2087 7.49625 40.8575 8.125 41.875L3.325 45.3913C1.9675 43.1337 1.25 40.25 1.25 36.875C1.25 30.7375 2.94375 24.2613 6.1475 19.32C8.99 14.9388 13.1337 11.875 17.8375 11.875L17.8125 18.125Z" fill="url(#paint1_linear_52_754)"/>
<path opacity="0.05" d="M27.0875 25.3375L26.7125 25.9L26.35 26.475C27.2375 27.7625 28.25 29.3125 29.3125 31.0875L29.575 30.625C29.6 30.575 29.6375 30.5125 29.675 30.4625C29.7875 30.25 29.9125 30.0375 30.025 29.825C28.9875 28.125 27.9875 26.6125 27.0875 25.3375ZM31.175 19.3875C31.0375 19.5625 30.9125 19.7375 30.7875 19.9125C31.7 21.05 32.625 22.3375 33.6 23.7875C33.725 23.5875 33.85 23.4 33.975 23.2125C34.025 23.1375 34.0625 23.075 34.1125 23.0125C34.1875 22.8875 34.275 22.775 34.35 22.6625C33.4 21.2625 32.475 20 31.5625 18.875C31.4375 19.0375 31.3 19.2125 31.175 19.3875Z" fill="black"/>
<path opacity="0.07" d="M27.0875 25.3375L26.7125 25.8999C27.6 27.1749 28.6 28.7 29.675 30.4625C29.7875 30.25 29.9125 30.0375 30.025 29.825C28.9875 28.125 27.9875 26.6125 27.0875 25.3375ZM30.7875 19.9125C31.7 21.05 32.625 22.3375 33.6 23.7875C33.725 23.5875 33.85 23.4 33.975 23.2125C33.0125 21.7875 32.075 20.5125 31.175 19.3875C31.0375 19.5625 30.9125 19.7375 30.7875 19.9125Z" fill="black"/>
<defs>
<linearGradient id="paint0_linear_52_754" x1="52.88" y1="30.9375" x2="16.9163" y2="30.9375" gradientUnits="userSpaceOnUse">
<stop stop-color="#0081FB"/>
<stop offset="0.995" stop-color="#0064E1"/>
</linearGradient>
<linearGradient id="paint1_linear_52_754" x1="9.54375" y1="41.0875" x2="9.54375" y2="16.265" gradientUnits="userSpaceOnUse">
<stop stop-color="#0081FB"/>
<stop offset="0.995" stop-color="#0064E1"/>
</linearGradient>
</defs>
</svg>
