<svg width="97" height="99" viewBox="0 0 97 99" fill="none" xmlns="http://www.w3.org/2000/svg">
<path d="M96.7918 43.2748C99.1562 70.6416 81.187 97.3691 52.8149 98.4571C26.0677 99.4828 2.88876 82.0145 0.326604 56.7339C-2.23555 31.4532 10.2676 5.70492 38.1669 1.22548C68.9034 -3.70952 94.5404 17.2146 96.7918 43.2748Z" fill="#7DDFFF"/>
<path d="M47.1783 13.1764C48.9665 9.10355 50.7824 4.96765 52.7499 0.787652C48.0783 0.303076 43.1907 0.418854 38.1669 1.22548C36.3189 1.52218 34.5385 1.91219 32.8256 2.3892C26.0423 16.5422 17.942 24.7904 1.71179 35.9189C0.0704495 42.5781 -0.388879 49.6742 0.326604 56.7339C0.777518 61.183 1.86699 65.3902 3.50208 69.2972C29.1952 54.1355 37.8069 34.5212 47.1783 13.1764Z" fill="#6BCDFF"/>
<path d="M95.8473 37.2824C96.2985 39.2421 96.6163 41.2428 96.7918 43.2748C99.1562 70.6416 81.187 97.3691 52.8149 98.4571C41.8536 98.8774 31.4917 96.1918 22.9023 91.1354C55.5254 56.9417 72.7395 41.5591 95.8473 37.2824Z" fill="#6BCDFF"/>
<path d="M58.9047 43.8762C63.7438 52.1365 66.7003 60.3813 67.5971 67.0076C68.0459 70.3231 67.972 73.1825 67.3989 75.4183C66.8271 77.6494 65.7825 79.1812 64.341 80.0116C62.8994 80.8419 61.04 80.9828 58.8022 80.3702C56.5597 79.7562 54.0182 78.4033 51.3361 76.3743C45.9755 72.3192 40.2174 65.6882 35.3783 57.4278C30.5392 49.1675 27.5828 40.9227 26.6859 34.2964C26.2372 30.9809 26.311 28.1215 26.8841 25.8857C27.4559 23.6546 28.5005 22.1228 29.9421 21.2925C31.3836 20.4621 33.243 20.3212 35.4808 20.9338C37.7233 21.5478 40.2648 22.9007 42.947 24.9297C48.3075 28.9848 54.0656 35.6158 58.9047 43.8762Z" stroke="white" stroke-width="2"/>
<path d="M36.1968 43.4202C31.2084 52.1724 28.1941 60.8842 27.3243 67.8681C26.8891 71.3625 26.9973 74.3732 27.6248 76.7227C28.2511 79.0677 29.3693 80.675 30.9036 81.5348C32.438 82.3947 34.4034 82.5156 36.7524 81.838C39.106 81.1591 41.7628 79.6979 44.5573 77.5257C50.1424 73.1843 56.114 66.1299 61.1024 57.3776C66.0907 48.6253 69.105 39.9136 69.9748 32.9297C70.41 29.4353 70.3019 26.4246 69.6744 24.0751C69.0481 21.7301 67.9299 20.1228 66.3955 19.2629C64.8611 18.403 62.8957 18.2822 60.5467 18.9598C58.1931 19.6387 55.5363 21.0999 52.7418 23.2721C47.1567 27.6135 41.1851 34.6679 36.1968 43.4202Z" stroke="black" stroke-width="2"/>
<path d="M48.9436 37.1927C39.325 36.6221 30.5667 37.7121 24.1927 39.8989C21.0033 40.9931 18.4601 42.3451 16.7038 43.8585C14.9507 45.369 14.0442 46.9806 13.9451 48.624C13.8459 50.2673 14.5521 51.9746 16.1111 53.6816C17.673 55.3918 20.0354 57.0348 23.0706 58.4983C29.1362 61.423 37.7009 63.5407 47.3196 64.1113C56.9382 64.6819 65.6965 63.5918 72.0705 61.4051C75.2599 60.3109 77.8031 58.9589 79.5594 57.4455C81.3125 55.935 82.219 54.3234 82.3181 52.68C82.4172 51.0367 81.711 49.3294 80.1521 47.6224C78.5902 45.9122 76.2277 44.2692 73.1926 42.8057C67.127 39.881 58.5623 37.7633 48.9436 37.1927Z" stroke="#006FFF" stroke-width="2"/>
<ellipse cx="48.4999" cy="51.3148" rx="6.40566" ry="6.35185" fill="white"/>
</svg>
