<svg width="37" height="43" viewBox="0 0 37 43" fill="none" xmlns="http://www.w3.org/2000/svg">
<path d="M13.6568 7.91139C21.0127 4.80451 26.3848 12.9753 23.4745 18.8329C21.143 22.8336 17.1032 24.0043 13.4628 22.3964C7.85559 20.5373 6.30082 11.0183 13.6568 7.91139Z" fill="#FFFCDE"/>
<rect width="4.58805" height="28.9625" transform="matrix(0.903343 -0.428918 0.429955 0.90285 13.3123 14.3809)" fill="#17191C"/>
<rect width="4.58854" height="7.2413" transform="matrix(0.90335 -0.428904 0.429969 0.902844 13.3123 14.3811)" fill="#FFDB5C"/>
<rect opacity="0.3" width="0.982916" height="7.24057" transform="matrix(0.903343 -0.428919 0.429953 0.902851 14.2664 13.9285)" fill="#FF4C4C"/>
<rect opacity="0.3" width="0.982886" height="18.1906" transform="matrix(0.90334 -0.428926 0.429947 0.902854 17.8601 21.7349)" fill="white"/>
<path d="M7.0558 20.5513L11.2449 18.6755M9.75479 7.1986L12.2038 10.4316M21.5078 6.60025L19.6306 10.0514" stroke="#353535" stroke-width="2"/>
<path d="M22.5855 13.0036L26.2477 10.8792" stroke="#B28EFF" stroke-width="5"/>
<path d="M13.1351 21.1032L12.1654 23.1663" stroke="#FF6BB2" stroke-width="3"/>
<path d="M5.01513 12.3086C5.44005 10.98 11.1947 13.2325 10.8223 14.3112C10.3925 15.5558 4.5902 13.6372 5.01513 12.3086Z" fill="#FF5C5C"/>
<path d="M14.1703 5.34775C15.5294 5.04416 16.4016 3.94313 17.0174 1.93714C16.9229 3.90869 17.4886 5.05231 18.6685 5.92222C17.1706 6.58583 16.388 7.64896 15.9267 9.70413C15.9772 7.57171 15.6861 6.32497 14.1703 5.34775Z" fill="#315EFF"/>
<ellipse cx="24.0707" cy="17.2663" rx="0.97728" ry="0.97612" transform="rotate(9.63282 24.0707 17.2663)" fill="#1AE69B"/>
</svg>
