<svg width="43" height="42" viewBox="0 0 43 42" fill="none" xmlns="http://www.w3.org/2000/svg">
<g clip-path="url(#clip0_52_555)">
<path d="M32.417 19.5362L22.4723 22.2009L25.4505 33.3155L21.3556 34.4127L21.7866 36.0214L39.921 31.1623L39.49 29.5536L35.3951 30.6508L32.417 19.5362Z" fill="#D3D5D9"/>
<path d="M32.417 19.5362L22.4723 22.2009L25.4505 33.3155L21.3556 34.4127L21.7866 36.0214L39.921 31.1623L39.49 29.5536L35.3951 30.6508L32.417 19.5362Z" fill="url(#paint0_linear_52_555)" fill-opacity="0.4"/>
<path d="M6.42876 15.3951L9.50656 22.8945L30.1451 22.1233L35.7737 10.7816L32.0269 11.2514L33.7516 1.46958L22.3193 8.33888L20.5162 4.02422L15.4608 12.975L10.5623 9.39091L9.95541 16.0971L6.42876 15.3951Z" fill="#FF5959"/>
<path d="M8.94306 17.3031L12.557 23.8131L26.8251 21.5504L34.3828 8.08276L28.1895 11.0777L28.5975 7.89946L21.9011 13.831L20.3988 8.22414L15.2975 15.6004L12.3844 13.4195L11.6019 17.2584L8.94306 17.3031Z" stroke="#FFDD2C" stroke-width="2"/>
<path d="M11.9847 17.6902C12.04 17.8966 11.9175 18.1088 11.711 18.1641C11.5046 18.2194 11.2924 18.0969 11.2371 17.8905C11.1818 17.684 11.3043 17.4718 11.5107 17.4165C11.7172 17.3612 11.9294 17.4837 11.9847 17.6902Z" fill="#FFDD2C"/>
<path d="M19.1576 12.5632C19.2129 12.7696 19.0904 12.9818 18.884 13.0371C18.6775 13.0924 18.4653 12.9699 18.41 12.7635C18.3547 12.557 18.4772 12.3448 18.6837 12.2895C18.8901 12.2342 19.1023 12.3567 19.1576 12.5632Z" fill="#FFDD2C"/>
<path d="M18.8107 14.2586C18.866 14.4651 18.7435 14.6773 18.537 14.7326C18.3306 14.7879 18.1184 14.6654 18.0631 14.459C18.0078 14.2525 18.1303 14.0403 18.3367 13.985C18.5432 13.9297 18.7553 14.0522 18.8107 14.2586Z" fill="#FFDD2C"/>
<path d="M13.9782 17.156C14.0335 17.3624 13.911 17.5746 13.7046 17.6299C13.4982 17.6853 13.286 17.5627 13.2306 17.3563C13.1753 17.1499 13.2978 16.9377 13.5043 16.8824C13.7107 16.827 13.9229 16.9496 13.9782 17.156Z" fill="#FFDD2C"/>
<path d="M20.8221 14.788C20.8774 14.9945 20.7549 15.2066 20.5485 15.262C20.342 15.3173 20.1298 15.1948 20.0745 14.9883C20.0192 14.7819 20.1417 14.5697 20.3481 14.5144C20.5546 14.4591 20.7668 14.5816 20.8221 14.788Z" fill="#FFDD2C"/>
<path d="M27.1318 10.4265C27.1871 10.6329 27.0646 10.8451 26.8582 10.9004C26.6517 10.9558 26.4395 10.8332 26.3842 10.6268C26.3289 10.4204 26.4514 10.2082 26.6578 10.1529C26.8643 10.0975 27.0765 10.2201 27.1318 10.4265Z" fill="#FFDD2C"/>
<path d="M24.7913 12.6561C24.8466 12.8626 24.7241 13.0748 24.5177 13.1301C24.3112 13.1854 24.099 13.0629 24.0437 12.8564C23.9884 12.65 24.1109 12.4378 24.3173 12.3825C24.5238 12.3272 24.736 12.4497 24.7913 12.6561Z" fill="#FFDD2C"/>
<path d="M23.8792 14.236C23.9345 14.4424 23.812 14.6546 23.6056 14.7099C23.3991 14.7652 23.1869 14.6427 23.1316 14.4363C23.0763 14.2298 23.1988 14.0176 23.4052 13.9623C23.6117 13.907 23.8239 14.0295 23.8792 14.236Z" fill="#FFDD2C"/>
<path d="M25.8727 13.7018C25.928 13.9082 25.8055 14.1204 25.5991 14.1757C25.3927 14.231 25.1805 14.1085 25.1252 13.9021C25.0698 13.6957 25.1923 13.4835 25.3988 13.4282C25.6052 13.3728 25.8174 13.4953 25.8727 13.7018Z" fill="#FFDD2C"/>
<path d="M30.7719 11.0536C30.8272 11.2601 30.7047 11.4723 30.4983 11.5276C30.2919 11.5829 30.0797 11.4604 30.0244 11.2539C29.969 11.0475 30.0915 10.8353 30.298 10.78C30.5044 10.7247 30.7166 10.8472 30.7719 11.0536Z" fill="#FFDD2C"/>
<path d="M29.0455 12.5846C29.1008 12.791 28.9783 13.0032 28.7718 13.0585C28.5654 13.1138 28.3532 12.9913 28.2979 12.7849C28.2426 12.5784 28.3651 12.3663 28.5715 12.3109C28.778 12.2556 28.9902 12.3781 29.0455 12.5846Z" fill="#FFDD2C"/>
<rect x="7.91528" y="19.4482" width="20.3807" height="14.9631" transform="rotate(-15 7.91528 19.4482)" fill="#E9EAEC"/>
<mask id="mask0_52_555" style="mask-type:alpha" maskUnits="userSpaceOnUse" x="11" y="18" width="16" height="13">
<rect x="9.81323" y="21.3657" width="15.5054" height="10.595" rx="5.29748" transform="rotate(-15 9.81323 21.3657)" fill="#82868F"/>
</mask>
<g mask="url(#mask0_52_555)">
<rect x="9.81323" y="21.3657" width="15.5054" height="10.595" rx="5.29748" transform="rotate(-15 9.81323 21.3657)" fill="#82868F"/>
<path d="M6.61945 25.6015L27.552 33.4215L27.3662 33.9191L6.43357 26.0991L6.61945 25.6015Z" fill="#565F6F"/>
<path d="M6.06182 27.0942L26.9944 34.9142L26.8085 35.4117L5.87595 27.5917L6.06182 27.0942Z" fill="#565F6F"/>
<path d="M7.73471 22.6162L28.6673 30.4362L28.4814 30.9337L7.54883 23.1137L7.73471 22.6162Z" fill="#565F6F"/>
<path d="M7.17708 24.1089L28.1097 31.9288L27.9238 32.4264L6.9912 24.6064L7.17708 24.1089Z" fill="#565F6F"/>
<path d="M8.84997 19.6309L29.7826 27.4508L29.5967 27.9484L8.66409 20.1284L8.84997 19.6309Z" fill="#565F6F"/>
<path d="M8.29234 21.1235L29.2249 28.9435L29.0391 29.4411L8.10646 21.6211L8.29234 21.1235Z" fill="#565F6F"/>
<path d="M9.96522 16.6455L30.8978 24.4655L30.7119 24.9631L9.77935 17.1431L9.96522 16.6455Z" fill="#565F6F"/>
<path d="M9.40759 18.1382L30.3402 25.9582L30.1543 26.4557L9.22172 18.6357L9.40759 18.1382Z" fill="#565F6F"/>
<path d="M10.2807 15.1354L31.2133 22.9554L31.0275 23.4529L10.0949 15.6329L10.2807 15.1354Z" fill="#565F6F"/>
<path d="M10.6016 13.657L31.5342 21.477L31.3483 21.9745L10.4157 14.1545L10.6016 13.657Z" fill="#565F6F"/>
</g>
<path d="M16.9578 21.2985L15.7118 21.6323C13.7851 22.1486 12.6417 24.1291 13.1579 26.0558V26.0558" stroke="white" stroke-width="2"/>
<path d="M30.9505 13.5429L26.6716 14.6895L30.4776 28.8935L39.9469 26.3562L37.8407 18.4957L35.7488 19.0562L30.9505 13.5429Z" fill="#F4F5F6"/>
<rect x="7.23462" y="19.8977" width="19.8648" height="14.7051" transform="rotate(-15 7.23462 19.8977)" stroke="#848D9B" stroke-width="2"/>
<path d="M32.7239 23.2171L31.6389 27.247M33.878 22.9078L32.7931 26.9377M35.0322 22.5986L33.9472 26.6285M36.1863 22.2893L35.1014 26.3192" stroke="#A7ABB4" stroke-width="2"/>
<path d="M27.1699 14.5559L30.9099 13.5538L35.6942 19.0893L37.5961 18.5797L39.6309 26.1737L36.7406 26.9482" stroke="#848D9B" stroke-width="2"/>
<path d="M13.2201 38.9545L36.5679 28.4061L37.4582 31.7287L33.9855 34.4398L13.4824 39.9336L13.2201 38.9545Z" fill="#C2C5CB"/>
<path d="M16.0128 33.9758L36.0628 28.6034L33.2896 33.5786L13.2231 38.9555L16.0128 33.9758Z" fill="#F4F5F6"/>
<path d="M24.2036 34.2889L32.8186 31.9805L33.2086 31.4058L24.5248 33.7326L24.2036 34.2889Z" fill="#CDCFD5"/>
<path d="M23.9043 33.8989L15.2893 36.2073L14.8993 36.782L23.5832 34.4552L23.9043 33.8989Z" fill="#CDCFD5"/>
<path d="M19.2496 34.5191L28.1351 32.1382L28.4562 31.5819L19.5707 33.9628L19.2496 34.5191Z" fill="#CDCFD5"/>
<path d="M18.9503 34.129L16.0388 34.9092L15.6488 35.4839L18.6291 34.6853L18.9503 34.129Z" fill="#CDCFD5"/>
<path d="M33.5681 30.6824L28.7555 31.972L29.0767 31.4157L33.9581 30.1077L33.5681 30.6824Z" fill="#CDCFD5"/>
<path d="M18.4885 36.4474L26.0244 34.4281L25.7807 34.9637L18.2448 36.9829L18.4885 36.4474Z" fill="#CDCFD5"/>
<path d="M15.4423 34.1285L36.6478 28.4465L37.5099 31.6639L33.6659 34.5748L12.5335 40.2372L12.2592 39.2135L15.4423 34.1285Z" stroke="#848D9B" stroke-width="2"/>
<path d="M22.3145 9.80802L23.3896 9.52594L23.7303 10.6422L22.6194 10.7881L22.3145 9.80802Z" fill="#FFDD2C"/>
<path d="M5.95834 11.8281L7.04274 12.6113L6.39293 13.5209L5.35274 12.5873L5.95834 11.8281Z" fill="#FF4C4C"/>
<rect width="0.77377" height="1.59146" transform="matrix(0.490431 0.87148 -0.862424 0.506186 5.44287 18.7573)" fill="#FF4C4C"/>
<rect width="1.19248" height="1.4207" transform="matrix(0.770599 0.637321 -0.628299 0.777972 36.3665 14.8523)" fill="#FF4C4C"/>
<ellipse cx="13.9126" cy="8.59555" rx="0.658674" ry="0.634798" transform="rotate(-131.54 13.9126 8.59555)" fill="#FF4C4C"/>
</g>
<defs>
<linearGradient id="paint0_linear_52_555" x1="35.789" y1="30.4571" x2="30.8538" y2="33.5919" gradientUnits="userSpaceOnUse">
<stop stop-color="#565F6F"/>
<stop offset="1" stop-color="#565F6F" stop-opacity="0"/>
</linearGradient>
<clipPath id="clip0_52_555">
<rect width="34.2148" height="34.2148" fill="white" transform="translate(0.760742 8.85547) rotate(-15)"/>
</clipPath>
</defs>
</svg>
